<?xml version="1.0" encoding="utf-8" standalone="no"?>
<!DOCTYPE svg PUBLIC "-//W3C//DTD SVG 1.1//EN"
  "http://www.w3.org/Graphics/SVG/1.1/DTD/svg11.dtd">
<svg xmlns:xlink="http://www.w3.org/1999/xlink" width="710.28pt" height="402.51976pt" viewBox="0 0 710.28 402.51976" xmlns="http://www.w3.org/2000/svg" version="1.1">
 <metadata>
  <rdf:RDF xmlns:dc="http://purl.org/dc/elements/1.1/" xmlns:cc="http://creativecommons.org/ns#" xmlns:rdf="http://www.w3.org/1999/02/22-rdf-syntax-ns#">
   <cc:Work>
    <dc:type rdf:resource="http://purl.org/dc/dcmitype/StillImage"/>
    <dc:date>2026-09-14T15:50:56.896914</dc:date>
    <dc:format>image/svg+xml</dc:format>
    <dc:creator>
     <cc:Agent>
      <dc:title>Matplotlib v3.11.1, https://matplotlib.org/</dc:title>
     </cc:Agent>
    </dc:creator>
   </cc:Work>
  </rdf:RDF>
 </metadata>
 <defs>
  <style type="text/css">*{stroke-linejoin: round; stroke-linecap: butt}</style>
 </defs>
 <g id="figure_1">
  <g id="patch_1">
   <path d="M 0 402.51976 
L 710.28 402.51976 
L 710.28 0 
L 0 0 
z
" style="fill: #0b0d12"/>
  </g>
  <g id="axes_1">
   <g id="patch_2">
    <path d="M 25.92 303.791412 
L 325.210909 303.791412 
L 325.210909 48.767412 
L 25.92 48.767412 
z
" style="fill: #0b0d12"/>
   </g>
   <g id="matplotlib.axis_1"/>
   <g id="matplotlib.axis_2"/>
   <g id="patch_3">
    <path d="M 34.989421 130.15805 
L 105.277438 130.15805 
L 105.277438 97.601795 
L 34.989421 97.601795 
z
" clip-path="url(#pd680916920)" style="fill: #1a1113; stroke: #6e2a24; stroke-width: 1.1; stroke-linejoin: miter"/>
   </g>
   <g id="patch_4">
    <path d="M 105.277438 130.15805 
L 175.565455 130.15805 
L 175.565455 97.601795 
L 105.277438 97.601795 
z
" clip-path="url(#pd680916920)" style="fill: #1a1113; stroke: #6e2a24; stroke-width: 1.1; stroke-linejoin: miter"/>
   </g>
   <g id="patch_5">
    <path d="M 175.565455 130.15805 
L 245.853471 130.15805 
L 245.853471 97.601795 
L 175.565455 97.601795 
z
" clip-path="url(#pd680916920)" style="fill: #1a1113; stroke: #6e2a24; stroke-width: 1.1; stroke-linejoin: miter"/>
   </g>
   <g id="patch_6">
    <path d="M 245.853471 130.15805 
L 316.141488 130.15805 
L 316.141488 97.601795 
L 245.853471 97.601795 
z
" clip-path="url(#pd680916920)" style="fill: #1a1113; stroke: #6e2a24; stroke-width: 1.1; stroke-linejoin: miter"/>
   </g>
   <g id="patch_7">
    <path d="M 34.989421 162.714306 
L 105.277438 162.714306 
L 105.277438 130.15805 
L 34.989421 130.15805 
z
" clip-path="url(#pd680916920)" style="fill: #12151d; stroke: #2a3040; stroke-width: 1.1; stroke-linejoin: miter"/>
   </g>
   <g id="patch_8">
    <path d="M 105.277438 162.714306 
L 175.565455 162.714306 
L 175.565455 130.15805 
L 105.277438 130.15805 
z
" clip-path="url(#pd680916920)" style="fill: #12151d; stroke: #2a3040; stroke-width: 1.1; stroke-linejoin: miter"/>
   </g>
   <g id="patch_9">
    <path d="M 175.565455 162.714306 
L 245.853471 162.714306 
L 245.853471 130.15805 
L 175.565455 130.15805 
z
" clip-path="url(#pd680916920)" style="fill: #12151d; stroke: #2a3040; stroke-width: 1.1; stroke-linejoin: miter"/>
   </g>
   <g id="patch_10">
    <path d="M 245.853471 162.714306 
L 316.141488 162.714306 
L 316.141488 130.15805 
L 245.853471 130.15805 
z
" clip-path="url(#pd680916920)" style="fill: #12151d; stroke: #2a3040; stroke-width: 1.1; stroke-linejoin: miter"/>
   </g>
   <g id="patch_11">
    <path d="M 34.989421 195.270561 
L 105.277438 195.270561 
L 105.277438 162.714306 
L 34.989421 162.714306 
z
" clip-path="url(#pd680916920)" style="fill: #12151d; stroke: #2a3040; stroke-width: 1.1; stroke-linejoin: miter"/>
   </g>
   <g id="patch_12">
    <path d="M 105.277438 195.270561 
L 175.565455 195.270561 
L 175.565455 162.714306 
L 105.277438 162.714306 
z
" clip-path="url(#pd680916920)" style="fill: #12151d; stroke: #2a3040; stroke-width: 1.1; stroke-linejoin: miter"/>
   </g>
   <g id="patch_13">
    <path d="M 175.565455 195.270561 
L 245.853471 195.270561 
L 245.853471 162.714306 
L 175.565455 162.714306 
z
" clip-path="url(#pd680916920)" style="fill: #12151d; stroke: #2a3040; stroke-width: 1.1; stroke-linejoin: miter"/>
   </g>
   <g id="patch_14">
    <path d="M 245.853471 195.270561 
L 316.141488 195.270561 
L 316.141488 162.714306 
L 245.853471 162.714306 
z
" clip-path="url(#pd680916920)" style="fill: #12151d; stroke: #2a3040; stroke-width: 1.1; stroke-linejoin: miter"/>
   </g>
   <g id="text_1">
    <!-- 연도가 «열 이름» 으로 들어간 구조 -->
    <g style="fill: #ff5a4d" transform="translate(34.989421 227.826816) scale(0.12 -0.12)">
     <defs>
      <path id="Pretendard-Medium-1ff0" d="M 4875 5063 
L 4281 5063 
L 4281 4219 
L 2888 4219 
C 2622 4531 2219 4722 1756 4725 
C 913 4719 288 4131 288 3300 
C 288 2475 913 1888 1756 1888 
C 2222 1888 2628 2078 2894 2394 
L 4281 2394 
L 4281 938 
L 4875 938 
L 4875 5063 
z
M 5025 69 
L 1831 69 
L 1831 1369 
L 1238 1369 
L 1238 -413 
L 5025 -413 
L 5025 69 
z
M 1756 4194 
C 2263 4194 2644 3831 2644 3300 
C 2644 2769 2263 2413 1756 2413 
C 1231 2413 856 2769 856 3300 
C 856 3831 1231 4194 1756 4194 
z
M 3150 3738 
L 4281 3738 
L 4281 2875 
L 3150 2875 
C 3191 3006 3213 3150 3213 3300 
C 3213 3456 3188 3603 3150 3738 
z
" transform="scale(0.015625)"/>
      <path id="Pretendard-Medium-dc4" d="M 4744 2488 
L 1438 2488 
L 1438 4156 
L 4694 4156 
L 4694 4638 
L 844 4638 
L 844 2013 
L 2463 2013 
L 2463 644 
L 206 644 
L 206 156 
L 5331 156 
L 5331 644 
L 3050 644 
L 3050 2013 
L 4744 2013 
L 4744 2488 
z
" transform="scale(0.015625)"/>
      <path id="Pretendard-Medium-600" d="M 4569 5069 
L 3975 5069 
L 3975 -525 
L 4569 -525 
L 4569 2344 
L 5438 2344 
L 5438 2838 
L 4569 2838 
L 4569 5069 
z
M 3106 4481 
L 494 4481 
L 494 3988 
L 2500 3988 
C 2378 2681 1616 1669 213 969 
L 544 506 
C 2388 1419 3100 2863 3106 4481 
z
" transform="scale(0.015625)"/>
      <path id="Pretendard-Medium-2" transform="scale(0.015625)"/>
      <path id="Pretendard-Medium-343d" d="M 1844 906 
L 1006 2263 
L 1844 3619 
L 1250 3619 
L 356 2294 
L 356 2231 
L 1250 906 
L 1844 906 
z
M 3088 906 
L 2250 2263 
L 3088 3619 
L 2494 3619 
L 1600 2294 
L 1600 2231 
L 2494 906 
L 3088 906 
z
" transform="scale(0.015625)"/>
      <path id="Pretendard-Medium-1ff4" d="M 1756 4888 
C 906 4888 288 4363 288 3613 
C 288 2850 906 2331 1756 2331 
C 2244 2331 2656 2506 2919 2806 
L 4281 2806 
L 4281 2219 
L 4869 2219 
L 4869 5069 
L 4281 5069 
L 4281 4425 
L 2906 4425 
C 2644 4716 2238 4888 1756 4888 
z
M 1756 4400 
C 2269 4406 2644 4081 2644 3613 
C 2644 3131 2269 2813 1756 2806 
C 1231 2813 856 3131 856 3613 
C 856 4081 1231 4406 1756 4400 
z
M 4869 1944 
L 1206 1944 
L 1206 1481 
L 4281 1481 
L 4281 994 
L 1219 994 
L 1219 -463 
L 5069 -463 
L 5069 13 
L 1813 13 
L 1813 550 
L 4869 550 
L 4869 1944 
z
M 3163 3956 
L 4281 3956 
L 4281 3275 
L 3169 3275 
C 3197 3381 3213 3494 3213 3613 
C 3213 3734 3194 3847 3163 3956 
z
" transform="scale(0.015625)"/>
      <path id="Pretendard-Medium-2174" d="M 4844 5069 
L 4250 5069 
L 4250 -544 
L 4844 -544 
L 4844 5069 
z
M 1850 4650 
C 1006 4650 400 3888 400 2688 
C 400 1481 1006 719 1850 719 
C 2681 719 3294 1481 3294 2688 
C 3294 3888 2681 4650 1850 4650 
z
M 1850 4119 
C 2363 4119 2719 3569 2719 2688 
C 2719 1800 2363 1250 1850 1250 
C 1331 1250 975 1800 975 2688 
C 975 3569 1331 4119 1850 4119 
z
" transform="scale(0.015625)"/>
      <path id="Pretendard-Medium-1384" d="M 5325 2200 
L 200 2200 
L 200 1725 
L 5325 1725 
L 5325 2200 
z
M 4681 4944 
L 844 4944 
L 844 4475 
L 4088 4475 
L 4088 4000 
L 856 4000 
L 856 2625 
L 4794 2625 
L 4794 3081 
L 1444 3081 
L 1444 3563 
L 4681 3563 
L 4681 4944 
z
M 4688 1269 
L 881 1269 
L 881 -463 
L 4688 -463 
L 4688 1269 
z
M 1469 794 
L 4100 794 
L 4100 19 
L 1469 19 
L 1469 794 
z
" transform="scale(0.015625)"/>
      <path id="Pretendard-Medium-343e" d="M 344 906 
L 944 906 
L 1838 2231 
L 1838 2294 
L 944 3619 
L 344 3619 
L 1188 2263 
L 344 906 
z
M 1594 906 
L 2194 906 
L 3088 2231 
L 3088 2294 
L 2194 3619 
L 1594 3619 
L 2438 2263 
L 1594 906 
z
" transform="scale(0.015625)"/>
      <path id="Pretendard-Medium-213c" d="M 2756 4731 
C 1581 4731 694 4113 694 3169 
C 694 2225 1581 1600 2756 1606 
C 3931 1600 4825 2225 4825 3169 
C 4825 4113 3931 4731 2756 4731 
z
M 2756 4250 
C 3613 4256 4250 3819 4250 3169 
C 4250 2513 3613 2094 2756 2094 
C 1900 2094 1256 2513 1263 3169 
C 1256 3819 1900 4256 2756 4250 
z
M 5331 688 
L 206 688 
L 206 194 
L 5331 194 
L 5331 688 
z
" transform="scale(0.015625)"/>
      <path id="Pretendard-Medium-125c" d="M 5331 638 
L 3050 638 
L 3050 1619 
L 4838 1619 
L 4838 2106 
L 1419 2106 
L 1419 2925 
L 4706 2925 
L 4706 4675 
L 819 4675 
L 819 4188 
L 4119 4188 
L 4119 3400 
L 831 3400 
L 831 1619 
L 2463 1619 
L 2463 638 
L 206 638 
L 206 138 
L 5331 138 
L 5331 638 
z
" transform="scale(0.015625)"/>
      <path id="Pretendard-Medium-ee4" d="M 5319 2775 
L 206 2775 
L 206 2300 
L 5319 2300 
L 5319 2775 
z
M 4713 3656 
L 1469 3656 
L 1469 4425 
L 4656 4425 
L 4656 4906 
L 875 4906 
L 875 3181 
L 4713 3181 
L 4713 3656 
z
M 4669 1856 
L 819 1856 
L 819 1400 
L 4081 1400 
L 4081 938 
L 825 938 
L 825 -469 
L 4825 -469 
L 4825 0 
L 1406 0 
L 1406 500 
L 4669 500 
L 4669 1856 
z
" transform="scale(0.015625)"/>
      <path id="Pretendard-Medium-1fb4" d="M 1725 4650 
C 888 4650 300 3888 306 2688 
C 300 1481 888 719 1725 719 
C 2503 719 3072 1397 3138 2488 
L 4288 2488 
L 4288 -544 
L 4875 -544 
L 4875 5069 
L 4288 5069 
L 4288 2969 
L 3131 2969 
C 3041 4006 2484 4650 1725 4650 
z
M 1725 4119 
C 2231 4119 2581 3569 2581 2688 
C 2581 1800 2231 1250 1725 1250 
C 1219 1250 869 1800 869 2688 
C 869 3569 1219 4119 1725 4119 
z
" transform="scale(0.015625)"/>
      <path id="Pretendard-Medium-604" d="M 4606 5069 
L 4006 5069 
L 4006 1000 
L 4606 1000 
L 4606 2919 
L 5419 2919 
L 5419 3413 
L 4606 3413 
L 4606 5069 
z
M 3088 4644 
L 438 4644 
L 438 4150 
L 2444 4150 
C 2325 3225 1509 2481 200 2088 
L 450 1613 
C 2088 2106 3088 3175 3088 4644 
z
M 4838 69 
L 1650 69 
L 1650 1419 
L 1050 1419 
L 1050 -413 
L 4838 -413 
L 4838 69 
z
" transform="scale(0.015625)"/>
      <path id="Pretendard-Medium-76c" d="M 4663 4719 
L 831 4719 
L 831 4231 
L 4075 4231 
L 4075 4225 
C 4075 3703 4075 3116 3906 2319 
L 206 2319 
L 206 1831 
L 2444 1831 
L 2444 -538 
L 3044 -538 
L 3044 1831 
L 5313 1831 
L 5313 2319 
L 4506 2319 
C 4663 3119 4663 3694 4663 4225 
L 4663 4719 
z
" transform="scale(0.015625)"/>
      <path id="Pretendard-Medium-2270" d="M 5331 656 
L 3063 656 
L 3063 1981 
L 2469 1981 
L 2469 656 
L 206 656 
L 206 169 
L 5331 169 
L 5331 656 
z
M 3069 4050 
L 3069 4100 
L 4888 4100 
L 4888 4588 
L 631 4588 
L 631 4100 
L 2450 4100 
L 2450 4050 
C 2450 3194 1488 2413 444 2238 
L 688 1769 
C 1575 1941 2403 2481 2769 3225 
C 3131 2491 3966 1966 4869 1794 
L 5106 2263 
C 4038 2431 3069 3194 3069 4050 
z
" transform="scale(0.015625)"/>
     </defs>
     <use xlink:href="#Pretendard-Medium-1ff0"/>
     <use xlink:href="#Pretendard-Medium-dc4" transform="translate(86.421875 0)"/>
     <use xlink:href="#Pretendard-Medium-600" transform="translate(172.84375 0)"/>
     <use xlink:href="#Pretendard-Medium-2" transform="translate(259.265625 0)"/>
     <use xlink:href="#Pretendard-Medium-343d" transform="translate(283.6875 0)"/>
     <use xlink:href="#Pretendard-Medium-1ff4" transform="translate(337.890625 0)"/>
     <use xlink:href="#Pretendard-Medium-2" transform="translate(424.3125 0)"/>
     <use xlink:href="#Pretendard-Medium-2174" transform="translate(448.734375 0)"/>
     <use xlink:href="#Pretendard-Medium-1384" transform="translate(535.15625 0)"/>
     <use xlink:href="#Pretendard-Medium-343e" transform="translate(621.578125 0)"/>
     <use xlink:href="#Pretendard-Medium-2" transform="translate(675.96875 0)"/>
     <use xlink:href="#Pretendard-Medium-213c" transform="translate(700.390625 0)"/>
     <use xlink:href="#Pretendard-Medium-125c" transform="translate(786.8125 0)"/>
     <use xlink:href="#Pretendard-Medium-2" transform="translate(873.234375 0)"/>
     <use xlink:href="#Pretendard-Medium-ee4" transform="translate(897.65625 0)"/>
     <use xlink:href="#Pretendard-Medium-1fb4" transform="translate(984.078125 0)"/>
     <use xlink:href="#Pretendard-Medium-604" transform="translate(1070.5 0)"/>
     <use xlink:href="#Pretendard-Medium-2" transform="translate(1156.921875 0)"/>
     <use xlink:href="#Pretendard-Medium-76c" transform="translate(1181.34375 0)"/>
     <use xlink:href="#Pretendard-Medium-2270" transform="translate(1267.765625 0)"/>
    </g>
   </g>
   <g id="text_2">
    <!-- 연도별 그래프마다 코드 수정 필요 -->
    <g style="fill: #9aa4b8" transform="translate(34.989421 272.654596) scale(0.105 -0.105)">
     <defs>
      <path id="Pretendard-Medium-16c4" d="M 4869 5069 
L 4281 5069 
L 4281 4300 
L 3056 4300 
L 3056 4813 
L 2469 4813 
L 2469 4056 
L 1069 4056 
L 1069 4813 
L 475 4813 
L 475 2363 
L 3056 2363 
L 3056 2825 
L 4281 2825 
L 4281 2156 
L 4869 2156 
L 4869 5069 
z
M 4869 1906 
L 1206 1906 
L 1206 1444 
L 4281 1444 
L 4281 975 
L 1219 975 
L 1219 -463 
L 5069 -463 
L 5069 13 
L 1813 13 
L 1813 531 
L 4869 531 
L 4869 1906 
z
M 1069 2838 
L 1069 3600 
L 2469 3600 
L 2469 2838 
L 1069 2838 
z
M 3056 3281 
L 3056 3844 
L 4281 3844 
L 4281 3281 
L 3056 3281 
z
" transform="scale(0.015625)"/>
      <path id="Pretendard-Medium-7f8" d="M 4644 4500 
L 756 4500 
L 756 4013 
L 4056 4013 
L 4056 3900 
C 4056 3194 4056 2369 3831 1250 
L 4438 1194 
C 4644 2388 4644 3175 4644 3900 
L 4644 4500 
z
M 5313 756 
L 206 756 
L 206 263 
L 5313 263 
L 5313 756 
z
" transform="scale(0.015625)"/>
      <path id="Pretendard-Medium-1198" d="M 2494 4481 
L 375 4481 
L 375 3994 
L 1919 3994 
L 1919 2944 
L 381 2944 
L 381 775 
L 763 775 
C 1463 781 2081 800 2863 938 
L 2813 1413 
C 2141 1306 1566 1278 956 1275 
L 956 2456 
L 2494 2456 
L 2494 4481 
z
M 5013 5069 
L 4444 5069 
L 4444 2888 
L 3719 2888 
L 3719 4956 
L 3175 4956 
L 3175 -244 
L 3719 -244 
L 3719 2406 
L 4444 2406 
L 4444 -531 
L 5013 -531 
L 5013 5069 
z
" transform="scale(0.015625)"/>
      <path id="Pretendard-Medium-2f04" d="M 5331 669 
L 206 669 
L 206 169 
L 5331 169 
L 5331 669 
z
M 4863 4531 
L 644 4531 
L 644 4044 
L 1494 4044 
L 1494 2175 
L 656 2175 
L 656 1700 
L 4844 1700 
L 4844 2175 
L 4006 2175 
L 4006 4044 
L 4863 4044 
L 4863 4531 
z
M 2081 2175 
L 2081 4044 
L 3425 4044 
L 3425 2175 
L 2081 2175 
z
" transform="scale(0.015625)"/>
      <path id="Pretendard-Medium-13c8" d="M 3038 4513 
L 419 4513 
L 419 875 
L 3038 875 
L 3038 4513 
z
M 1000 4044 
L 2450 4044 
L 2450 1356 
L 1000 1356 
L 1000 4044 
z
M 4569 5069 
L 3975 5069 
L 3975 -531 
L 4569 -531 
L 4569 2375 
L 5469 2375 
L 5469 2875 
L 4569 2875 
L 4569 5069 
z
" transform="scale(0.015625)"/>
      <path id="Pretendard-Medium-ce4" d="M 4569 5069 
L 3975 5069 
L 3975 -544 
L 4569 -544 
L 4569 2413 
L 5469 2413 
L 5469 2900 
L 4569 2900 
L 4569 5069 
z
M 3063 4531 
L 444 4531 
L 444 850 
L 894 850 
C 1938 844 2681 875 3556 1031 
L 3481 1531 
C 2684 1388 1978 1347 1038 1344 
L 1038 4050 
L 3063 4050 
L 3063 4531 
z
" transform="scale(0.015625)"/>
      <path id="Pretendard-Medium-2954" d="M 4725 4550 
L 813 4550 
L 813 4063 
L 4144 4063 
L 4144 4025 
C 4144 3772 4144 3500 4131 3200 
L 644 3063 
L 731 2550 
L 4100 2750 
C 4069 2369 4009 1947 3906 1469 
L 4488 1406 
C 4725 2569 4719 3344 4725 4025 
L 4725 4550 
z
M 5313 688 
L 2738 688 
L 2738 2106 
L 2150 2106 
L 2150 688 
L 206 688 
L 206 194 
L 5313 194 
L 5313 688 
z
" transform="scale(0.015625)"/>
      <path id="Pretendard-Medium-edc" d="M 4744 2413 
L 1431 2413 
L 1431 4081 
L 4694 4081 
L 4694 4569 
L 844 4569 
L 844 1925 
L 4744 1925 
L 4744 2413 
z
M 5331 700 
L 206 700 
L 206 206 
L 5331 206 
L 5331 700 
z
" transform="scale(0.015625)"/>
      <path id="Pretendard-Medium-1c18" d="M 3075 4575 
L 3075 4881 
L 2456 4881 
L 2456 4575 
C 2450 3825 1550 3131 450 2988 
L 688 2500 
C 1597 2647 2400 3119 2769 3781 
C 3128 3122 3934 2647 4850 2500 
L 5081 2988 
C 3981 3131 3069 3831 3075 4575 
z
M 5313 1950 
L 206 1950 
L 206 1463 
L 2456 1463 
L 2456 -531 
L 3038 -531 
L 3038 1463 
L 5313 1463 
L 5313 1950 
z
" transform="scale(0.015625)"/>
      <path id="Pretendard-Medium-2215" d="M 4875 5069 
L 4281 5069 
L 4281 3644 
L 3238 3644 
L 3238 3156 
L 4281 3156 
L 4281 1738 
L 4875 1738 
L 4875 5069 
z
M 3000 1581 
C 1825 1581 1100 1194 1106 525 
C 1100 -144 1825 -525 3000 -531 
C 4175 -525 4894 -144 4894 525 
C 4894 1194 4175 1581 3000 1581 
z
M 3000 1119 
C 3819 1119 4306 906 4306 525 
C 4306 150 3819 -69 3000 -63 
C 2181 -69 1694 150 1694 525 
C 1694 906 2181 1119 3000 1119 
z
M 2213 4081 
L 2213 4200 
L 3413 4200 
L 3413 4681 
L 394 4681 
L 394 4200 
L 1606 4200 
L 1606 4075 
C 1606 3300 1075 2544 206 2244 
L 519 1769 
C 1188 2013 1678 2516 1925 3144 
C 2166 2591 2628 2144 3256 1925 
L 3563 2394 
C 2719 2681 2213 3369 2213 4081 
z
" transform="scale(0.015625)"/>
      <path id="Pretendard-Medium-2f44" d="M 4863 5069 
L 4263 5069 
L 4263 2175 
L 4863 2175 
L 4863 5069 
z
M 4863 1919 
L 1144 1919 
L 1144 1450 
L 4275 1450 
L 4275 963 
L 1163 963 
L 1163 -475 
L 5056 -475 
L 5056 0 
L 1744 0 
L 1744 531 
L 4863 531 
L 4863 1919 
z
M 3494 4700 
L 450 4700 
L 450 4231 
L 981 4231 
L 981 2825 
L 300 2819 
L 369 2344 
C 1350 2344 2656 2381 3775 2550 
L 3750 2981 
C 3497 2950 3228 2925 2956 2906 
L 2956 4231 
L 3494 4231 
L 3494 4700 
z
M 1550 2838 
L 1550 4231 
L 2388 4231 
L 2388 2875 
C 2106 2856 1825 2847 1550 2838 
z
" transform="scale(0.015625)"/>
      <path id="Pretendard-Medium-2094" d="M 5331 663 
L 4106 663 
L 4106 2138 
C 4556 2391 4825 2788 4825 3281 
C 4825 4163 3963 4744 2756 4744 
C 1556 4744 694 4163 694 3281 
C 694 2781 972 2378 1431 2125 
L 1431 663 
L 206 663 
L 206 169 
L 5331 169 
L 5331 663 
z
M 2756 4269 
C 3631 4269 4250 3888 4250 3281 
C 4250 2681 3631 2288 2756 2288 
C 1875 2288 1269 2681 1269 3281 
C 1269 3888 1875 4269 2756 4269 
z
M 2019 663 
L 2019 1906 
C 2244 1853 2494 1825 2756 1825 
C 3025 1825 3278 1853 3506 1913 
L 3506 663 
L 2019 663 
z
" transform="scale(0.015625)"/>
     </defs>
     <use xlink:href="#Pretendard-Medium-1ff0"/>
     <use xlink:href="#Pretendard-Medium-dc4" transform="translate(86.421875 0)"/>
     <use xlink:href="#Pretendard-Medium-16c4" transform="translate(172.84375 0)"/>
     <use xlink:href="#Pretendard-Medium-2" transform="translate(259.265625 0)"/>
     <use xlink:href="#Pretendard-Medium-7f8" transform="translate(283.6875 0)"/>
     <use xlink:href="#Pretendard-Medium-1198" transform="translate(370.109375 0)"/>
     <use xlink:href="#Pretendard-Medium-2f04" transform="translate(456.53125 0)"/>
     <use xlink:href="#Pretendard-Medium-13c8" transform="translate(542.953125 0)"/>
     <use xlink:href="#Pretendard-Medium-ce4" transform="translate(629.375 0)"/>
     <use xlink:href="#Pretendard-Medium-2" transform="translate(715.796875 0)"/>
     <use xlink:href="#Pretendard-Medium-2954" transform="translate(740.21875 0)"/>
     <use xlink:href="#Pretendard-Medium-edc" transform="translate(826.640625 0)"/>
     <use xlink:href="#Pretendard-Medium-2" transform="translate(913.0625 0)"/>
     <use xlink:href="#Pretendard-Medium-1c18" transform="translate(937.484375 0)"/>
     <use xlink:href="#Pretendard-Medium-2215" transform="translate(1023.90625 0)"/>
     <use xlink:href="#Pretendard-Medium-2" transform="translate(1110.328125 0)"/>
     <use xlink:href="#Pretendard-Medium-2f44" transform="translate(1134.75 0)"/>
     <use xlink:href="#Pretendard-Medium-2094" transform="translate(1221.171875 0)"/>
    </g>
    <!-- 2027년 자료 추가 시 구조 변경 -->
    <g style="fill: #9aa4b8" transform="translate(34.989421 295.19986) scale(0.105 -0.105)">
     <defs>
      <path id="Pretendard-Medium-32cb" d="M 400 0 
L 3444 0 
L 3444 588 
L 1356 588 
L 1356 625 
L 2275 1556 
C 3125 2394 3363 2794 3369 3300 
C 3363 4038 2763 4588 1888 4588 
C 1025 4588 394 4038 400 3213 
L 1050 3213 
C 1050 3694 1375 4013 1875 4013 
C 2350 4013 2713 3725 2713 3281 
C 2713 2888 2463 2600 1969 2081 
L 400 500 
L 400 0 
z
" transform="scale(0.015625)"/>
      <path id="Pretendard-Medium-32c9" d="M 1975 -63 
C 3019 -63 3638 781 3638 2263 
C 3638 3731 3013 4588 1975 4588 
C 938 4588 313 3731 313 2263 
C 313 781 925 -63 1975 -63 
z
M 1975 531 
C 1363 531 1000 1131 1000 2263 
C 1000 3388 1369 4006 1975 4006 
C 2581 4006 2950 3388 2950 2263 
C 2950 1131 2588 531 1975 531 
z
" transform="scale(0.015625)"/>
      <path id="Pretendard-Medium-32d0" d="M 556 0 
L 1275 0 
L 3288 3913 
L 3288 4525 
L 244 4525 
L 244 3938 
L 2575 3938 
L 2575 3900 
L 556 0 
z
" transform="scale(0.015625)"/>
      <path id="Pretendard-Medium-b44" d="M 4875 5063 
L 4281 5063 
L 4281 4369 
L 2744 4369 
L 2744 3894 
L 4281 3894 
L 4281 3306 
L 2744 3306 
L 2744 2831 
L 4281 2831 
L 4281 925 
L 4875 925 
L 4875 5063 
z
M 5019 69 
L 1825 69 
L 1825 1288 
L 1225 1288 
L 1225 -413 
L 5019 -413 
L 5019 69 
z
M 1125 4675 
L 538 4675 
L 538 1725 
L 969 1725 
C 1794 1731 2550 1763 3438 1931 
L 3375 2419 
C 2575 2272 1869 2225 1125 2225 
L 1125 4675 
z
" transform="scale(0.015625)"/>
      <path id="Pretendard-Medium-2190" d="M 2156 3419 
L 2156 4013 
L 3375 4013 
L 3375 4506 
L 306 4506 
L 306 4013 
L 1569 4013 
L 1569 3419 
C 1569 2469 950 1413 100 1006 
L 450 538 
C 1091 856 1616 1547 1875 2350 
C 2125 1616 2622 984 3250 681 
L 3588 1144 
C 2738 1544 2156 2531 2156 3419 
z
M 4569 5069 
L 3975 5069 
L 3975 -531 
L 4569 -531 
L 4569 2350 
L 5469 2350 
L 5469 2850 
L 4569 2850 
L 4569 5069 
z
" transform="scale(0.015625)"/>
      <path id="Pretendard-Medium-12cc" d="M 5331 638 
L 3988 638 
L 3988 1625 
L 4838 1625 
L 4838 2113 
L 1419 2113 
L 1419 2925 
L 4706 2925 
L 4706 4675 
L 819 4675 
L 819 4188 
L 4119 4188 
L 4119 3406 
L 831 3406 
L 831 1625 
L 1606 1625 
L 1606 638 
L 206 638 
L 206 138 
L 5331 138 
L 5331 638 
z
M 2181 638 
L 2181 1625 
L 3406 1625 
L 3406 638 
L 2181 638 
z
" transform="scale(0.015625)"/>
      <path id="Pretendard-Medium-2794" d="M 5313 1694 
L 206 1694 
L 206 1206 
L 2463 1206 
L 2463 -538 
L 3050 -538 
L 3050 1206 
L 5313 1206 
L 5313 1694 
z
M 4825 4394 
L 3050 4394 
L 3050 5069 
L 2463 5069 
L 2463 4394 
L 688 4394 
L 688 3913 
L 2463 3913 
C 2422 3281 1572 2691 506 2556 
L 725 2081 
C 1625 2206 2397 2622 2763 3200 
C 3122 2628 3888 2206 4788 2081 
L 5000 2556 
C 3934 2691 3091 3294 3056 3913 
L 4825 3913 
L 4825 4394 
z
" transform="scale(0.015625)"/>
      <path id="Pretendard-Medium-1cdc" d="M 2263 3644 
L 2263 4600 
L 1663 4600 
L 1663 3644 
C 1663 2575 1044 1506 163 1113 
L 525 613 
C 1197 941 1713 1619 1975 2438 
C 2234 1672 2744 1044 3388 738 
L 3744 1206 
C 2875 1594 2256 2619 2263 3644 
z
M 4844 5069 
L 4250 5069 
L 4250 -544 
L 4844 -544 
L 4844 5069 
z
" transform="scale(0.015625)"/>
      <path id="Pretendard-Medium-16c0" d="M 4875 5063 
L 4281 5063 
L 4281 4069 
L 3056 4069 
L 3056 4694 
L 2469 4694 
L 2469 3744 
L 1069 3744 
L 1069 4694 
L 475 4694 
L 475 1856 
L 3056 1856 
L 3056 2381 
L 4281 2381 
L 4281 925 
L 4875 925 
L 4875 5063 
z
M 5000 69 
L 1819 69 
L 1819 1331 
L 1219 1331 
L 1219 -413 
L 5000 -413 
L 5000 69 
z
M 1069 2338 
L 1069 3288 
L 2469 3288 
L 2469 2338 
L 1069 2338 
z
M 3056 2863 
L 3056 3581 
L 4281 3581 
L 4281 2863 
L 3056 2863 
z
" transform="scale(0.015625)"/>
      <path id="Pretendard-Medium-6bd" d="M 4875 5063 
L 4281 5063 
L 4281 4069 
L 3069 4069 
C 3103 4256 3125 4456 3125 4663 
L 563 4663 
L 563 4175 
L 2481 4175 
C 2375 3272 1600 2563 275 2181 
L 513 1719 
C 1725 2066 2566 2700 2925 3600 
L 4281 3600 
L 4281 2919 
L 2869 2919 
L 2869 2431 
L 4281 2431 
L 4281 1750 
L 4875 1750 
L 4875 5063 
z
M 3031 1688 
C 1881 1688 1144 1275 1144 594 
C 1144 -88 1881 -506 3031 -506 
C 4163 -506 4906 -88 4913 594 
C 4906 1275 4163 1688 3031 1688 
z
M 3031 1219 
C 3819 1219 4313 994 4319 594 
C 4313 200 3819 -31 3031 -31 
C 2231 -31 1731 200 1731 594 
C 1731 994 2231 1219 3031 1219 
z
" transform="scale(0.015625)"/>
     </defs>
     <use xlink:href="#Pretendard-Medium-32cb"/>
     <use xlink:href="#Pretendard-Medium-32c9" transform="translate(59.46875 0)"/>
     <use xlink:href="#Pretendard-Medium-32cb" transform="translate(121.1875 0)"/>
     <use xlink:href="#Pretendard-Medium-32d0" transform="translate(180.65625 0)"/>
     <use xlink:href="#Pretendard-Medium-b44" transform="translate(236.609375 0)"/>
     <use xlink:href="#Pretendard-Medium-2" transform="translate(323.03125 0)"/>
     <use xlink:href="#Pretendard-Medium-2190" transform="translate(347.453125 0)"/>
     <use xlink:href="#Pretendard-Medium-12cc" transform="translate(433.875 0)"/>
     <use xlink:href="#Pretendard-Medium-2" transform="translate(520.296875 0)"/>
     <use xlink:href="#Pretendard-Medium-2794" transform="translate(544.71875 0)"/>
     <use xlink:href="#Pretendard-Medium-600" transform="translate(631.140625 0)"/>
     <use xlink:href="#Pretendard-Medium-2" transform="translate(717.5625 0)"/>
     <use xlink:href="#Pretendard-Medium-1cdc" transform="translate(741.984375 0)"/>
     <use xlink:href="#Pretendard-Medium-2" transform="translate(828.40625 0)"/>
     <use xlink:href="#Pretendard-Medium-76c" transform="translate(852.828125 0)"/>
     <use xlink:href="#Pretendard-Medium-2270" transform="translate(939.25 0)"/>
     <use xlink:href="#Pretendard-Medium-2" transform="translate(1025.671875 0)"/>
     <use xlink:href="#Pretendard-Medium-16c0" transform="translate(1050.09375 0)"/>
     <use xlink:href="#Pretendard-Medium-6bd" transform="translate(1136.515625 0)"/>
    </g>
   </g>
   <g id="text_3">
    <!-- 정리 전 -->
    <g style="fill: #ff5a4d" transform="translate(25.92 38.767412) scale(0.135 -0.135)">
     <defs>
      <path id="Pretendard-Medium-13ac" d="M 4856 5069 
L 4263 5069 
L 4263 -544 
L 4856 -544 
L 4856 5069 
z
M 3144 4563 
L 519 4563 
L 519 4081 
L 2538 4081 
L 2538 2994 
L 525 2994 
L 525 800 
L 1000 800 
C 1988 800 2831 838 3825 1006 
L 3769 1494 
C 2831 1338 2038 1297 1131 1294 
L 1131 2519 
L 3144 2519 
L 3144 4563 
z
" transform="scale(0.015625)"/>
      <path id="Pretendard-Medium-2204" d="M 4875 5063 
L 4281 5063 
L 4281 3550 
L 3213 3550 
L 3213 3069 
L 4281 3069 
L 4281 963 
L 4875 963 
L 4875 5063 
z
M 5025 69 
L 1831 69 
L 1831 1331 
L 1238 1331 
L 1238 -413 
L 5025 -413 
L 5025 69 
z
M 2213 3931 
L 2213 4150 
L 3413 4150 
L 3413 4638 
L 394 4638 
L 394 4150 
L 1606 4150 
L 1606 3931 
C 1606 3163 1075 2425 213 2131 
L 519 1650 
C 1184 1888 1675 2384 1919 3000 
C 2163 2447 2628 1997 3256 1775 
L 3563 2250 
C 2719 2531 2213 3231 2213 3931 
z
" transform="scale(0.015625)"/>
     </defs>
     <use xlink:href="#Pretendard-Medium-2215"/>
     <use xlink:href="#Pretendard-Medium-13ac" transform="translate(86.421875 0)"/>
     <use xlink:href="#Pretendard-Medium-2" transform="translate(172.84375 0)"/>
     <use xlink:href="#Pretendard-Medium-2204" transform="translate(197.265625 0)"/>
    </g>
   </g>
   <g id="text_4">
    <!-- 학과 -->
    <g style="fill: #ff5a4d" transform="translate(61.059133 116.707642) scale(0.105 -0.105)">
     <defs>
      <path id="Pretendard-Medium-2f59" d="M 3550 4500 
L 2181 4500 
L 2181 5094 
L 1588 5094 
L 1588 4500 
L 213 4500 
L 213 4025 
L 3550 4025 
L 3550 4500 
z
M 1881 3775 
C 1069 3769 519 3369 519 2756 
C 519 2144 1069 1738 1881 1738 
C 2688 1738 3238 2144 3238 2756 
C 3238 3369 2688 3769 1881 3775 
z
M 1881 3319 
C 2356 3319 2675 3100 2681 2756 
C 2675 2406 2356 2200 1881 2200 
C 1406 2200 1088 2406 1094 2756 
C 1088 3100 1406 3319 1881 3319 
z
M 4606 5069 
L 4013 5069 
L 4013 1569 
L 4606 1569 
L 4606 3056 
L 5419 3056 
L 5419 3550 
L 4606 3550 
L 4606 5069 
z
M 4606 1281 
L 906 1281 
L 906 800 
L 4013 800 
L 4013 -531 
L 4606 -531 
L 4606 1281 
z
" transform="scale(0.015625)"/>
      <path id="Pretendard-Medium-6fc" d="M 3325 4469 
L 463 4469 
L 463 3988 
L 2738 3988 
C 2731 3519 2716 2872 2575 1975 
L 3163 1931 
C 3325 2931 3325 3656 3325 4125 
L 3325 4469 
z
M 1888 2869 
L 1300 2869 
L 1300 1175 
C 891 1163 500 1159 150 1156 
L 219 675 
C 1213 669 2513 694 3681 881 
L 3650 1325 
C 3091 1253 2484 1213 1888 1194 
L 1888 2869 
z
M 4569 5069 
L 3969 5069 
L 3969 -531 
L 4569 -531 
L 4569 2250 
L 5425 2250 
L 5425 2756 
L 4569 2756 
L 4569 5069 
z
" transform="scale(0.015625)"/>
     </defs>
     <use xlink:href="#Pretendard-Medium-2f59"/>
     <use xlink:href="#Pretendard-Medium-6fc" transform="translate(86.421875 0)"/>
    </g>
   </g>
   <g id="text_5">
    <!-- 2024 -->
    <g style="fill: #ff5a4d" transform="translate(128.874728 116.428018) scale(0.105 -0.105)">
     <defs>
      <path id="Consolas-Bold-269" d="M 403 0 
L 403 563 
L 1369 1528 
Q 1641 1800 1805 1997 
Q 1969 2194 2058 2348 
Q 2147 2503 2175 2634 
Q 2203 2766 2203 2906 
Q 2203 3022 2165 3126 
Q 2128 3231 2056 3307 
Q 1984 3384 1875 3429 
Q 1766 3475 1625 3475 
Q 1384 3475 1178 3370 
Q 972 3266 788 3091 
L 384 3609 
Q 650 3856 983 4004 
Q 1316 4153 1703 4153 
Q 2003 4153 2247 4076 
Q 2491 4000 2664 3850 
Q 2838 3700 2933 3475 
Q 3028 3250 3028 2956 
Q 3028 2713 2962 2502 
Q 2897 2291 2772 2091 
Q 2647 1891 2464 1691 
Q 2281 1491 2047 1269 
L 1453 703 
L 3175 703 
L 3175 0 
L 403 0 
z
" transform="scale(0.015625)"/>
      <path id="Consolas-Bold-265" d="M 3353 2059 
Q 3353 1556 3243 1159 
Q 3134 763 2923 489 
Q 2713 216 2409 72 
Q 2106 -72 1716 -72 
Q 1378 -72 1093 47 
Q 809 166 603 420 
Q 397 675 281 1072 
Q 166 1469 166 2022 
Q 166 2525 277 2922 
Q 388 3319 597 3592 
Q 806 3866 1112 4009 
Q 1419 4153 1806 4153 
Q 2144 4153 2428 4034 
Q 2713 3916 2917 3662 
Q 3122 3409 3237 3012 
Q 3353 2616 3353 2059 
z
M 934 2047 
Q 934 1984 934 1929 
Q 934 1875 941 1819 
L 2472 2925 
Q 2363 3234 2183 3382 
Q 2003 3531 1759 3531 
Q 1584 3531 1434 3442 
Q 1284 3353 1173 3168 
Q 1063 2984 998 2706 
Q 934 2428 934 2047 
z
M 2584 2034 
Q 2584 2088 2581 2142 
Q 2578 2197 2578 2247 
L 1056 1147 
Q 1156 844 1337 697 
Q 1519 550 1759 550 
Q 1934 550 2086 640 
Q 2238 731 2348 914 
Q 2459 1097 2521 1376 
Q 2584 1656 2584 2034 
z
" transform="scale(0.015625)"/>
      <path id="Consolas-Bold-26b" d="M 2766 831 
L 2766 0 
L 2022 0 
L 2022 831 
L 122 831 
L 122 1484 
L 1716 4084 
L 2766 4084 
L 2766 1503 
L 3384 1503 
L 3384 831 
L 2766 831 
z
M 2031 3347 
L 869 1503 
L 2031 1503 
L 2031 3347 
z
" transform="scale(0.015625)"/>
     </defs>
     <use xlink:href="#Consolas-Bold-269"/>
     <use xlink:href="#Consolas-Bold-265" transform="translate(54.984375 0)"/>
     <use xlink:href="#Consolas-Bold-269" transform="translate(109.96875 0)"/>
     <use xlink:href="#Consolas-Bold-26b" transform="translate(164.953125 0)"/>
    </g>
   </g>
   <g id="text_6">
    <!-- 2025 -->
    <g style="fill: #ff5a4d" transform="translate(199.162744 116.428018) scale(0.105 -0.105)">
     <defs>
      <path id="Consolas-Bold-26c" d="M 3144 1306 
Q 3144 978 3006 723 
Q 2869 469 2625 294 
Q 2381 119 2050 28 
Q 1719 -63 1331 -63 
Q 1234 -63 1125 -56 
Q 1016 -50 903 -40 
Q 791 -31 684 -17 
Q 578 -3 488 13 
L 488 678 
Q 666 634 897 607 
Q 1128 581 1369 581 
Q 1838 581 2083 761 
Q 2328 941 2328 1259 
Q 2328 1591 2100 1752 
Q 1872 1913 1363 1913 
L 563 1913 
L 563 4084 
L 2919 4084 
L 2919 3366 
L 1275 3366 
L 1275 2534 
L 1569 2534 
Q 1881 2534 2165 2478 
Q 2450 2422 2667 2283 
Q 2884 2144 3014 1906 
Q 3144 1669 3144 1306 
z
" transform="scale(0.015625)"/>
     </defs>
     <use xlink:href="#Consolas-Bold-269"/>
     <use xlink:href="#Consolas-Bold-265" transform="translate(54.984375 0)"/>
     <use xlink:href="#Consolas-Bold-269" transform="translate(109.96875 0)"/>
     <use xlink:href="#Consolas-Bold-26c" transform="translate(164.953125 0)"/>
    </g>
   </g>
   <g id="text_7">
    <!-- 2026 -->
    <g style="fill: #ff5a4d" transform="translate(269.450761 116.428018) scale(0.105 -0.105)">
     <defs>
      <path id="Consolas-Bold-26d" d="M 3278 1294 
Q 3278 984 3165 732 
Q 3053 481 2854 301 
Q 2656 122 2381 25 
Q 2106 -72 1778 -72 
Q 1063 -72 684 378 
Q 306 828 306 1753 
Q 306 2091 347 2395 
Q 388 2700 483 2958 
Q 578 3216 739 3425 
Q 900 3634 1140 3779 
Q 1381 3925 1709 4004 
Q 2038 4084 2472 4084 
L 2938 4084 
L 2938 3438 
L 2394 3438 
Q 2056 3438 1828 3369 
Q 1600 3300 1456 3172 
Q 1313 3044 1241 2859 
Q 1169 2675 1147 2444 
L 1141 2369 
Q 1303 2447 1511 2497 
Q 1719 2547 1947 2547 
Q 2278 2547 2528 2461 
Q 2778 2375 2945 2212 
Q 3113 2050 3195 1819 
Q 3278 1588 3278 1294 
z
M 2484 1259 
Q 2484 1403 2446 1523 
Q 2409 1644 2329 1730 
Q 2250 1816 2126 1864 
Q 2003 1913 1831 1913 
Q 1731 1913 1632 1895 
Q 1534 1878 1442 1850 
Q 1350 1822 1267 1787 
Q 1184 1753 1119 1716 
Q 1119 1400 1162 1183 
Q 1206 966 1295 828 
Q 1384 691 1517 630 
Q 1650 569 1825 569 
Q 1975 569 2097 619 
Q 2219 669 2305 761 
Q 2391 853 2437 979 
Q 2484 1106 2484 1259 
z
" transform="scale(0.015625)"/>
     </defs>
     <use xlink:href="#Consolas-Bold-269"/>
     <use xlink:href="#Consolas-Bold-265" transform="translate(54.984375 0)"/>
     <use xlink:href="#Consolas-Bold-269" transform="translate(109.96875 0)"/>
     <use xlink:href="#Consolas-Bold-26d" transform="translate(164.953125 0)"/>
    </g>
   </g>
   <g id="text_8">
    <!-- 디자인 -->
    <g style="fill: #e8ecf4" transform="translate(56.521984 149.24339) scale(0.105 -0.105)">
     <defs>
      <path id="Pretendard-Medium-f14" d="M 4844 5069 
L 4250 5069 
L 4250 -544 
L 4844 -544 
L 4844 5069 
z
M 3244 4550 
L 563 4550 
L 563 831 
L 1025 831 
C 2188 831 2919 869 3756 1019 
L 3694 1513 
C 2903 1369 2225 1341 1163 1338 
L 1163 4056 
L 3244 4056 
L 3244 4550 
z
" transform="scale(0.015625)"/>
      <path id="Pretendard-Medium-2178" d="M 4850 5063 
L 4256 5063 
L 4256 994 
L 4850 994 
L 4850 5063 
z
M 5019 69 
L 1788 69 
L 1788 1406 
L 1188 1406 
L 1188 -413 
L 5019 -413 
L 5019 69 
z
M 1813 4688 
C 969 4688 319 4113 319 3300 
C 319 2475 969 1906 1813 1906 
C 2656 1906 3300 2475 3300 3300 
C 3300 4113 2656 4688 1813 4688 
z
M 1813 4169 
C 2325 4169 2719 3813 2719 3300 
C 2719 2775 2325 2425 1813 2425 
C 1288 2425 900 2775 900 3300 
C 900 3813 1288 4169 1813 4169 
z
" transform="scale(0.015625)"/>
     </defs>
     <use xlink:href="#Pretendard-Medium-f14"/>
     <use xlink:href="#Pretendard-Medium-2190" transform="translate(86.421875 0)"/>
     <use xlink:href="#Pretendard-Medium-2178" transform="translate(172.84375 0)"/>
    </g>
   </g>
   <g id="text_9">
    <!-- 41 -->
    <g style="fill: #e8ecf4" transform="translate(134.648087 148.984274) scale(0.105 -0.105)">
     <defs>
      <path id="Consolas-26b" d="M 3353 903 
L 2656 903 
L 2656 0 
L 2100 0 
L 2100 903 
L 134 903 
L 134 1381 
L 1875 4084 
L 2656 4084 
L 2656 1381 
L 3353 1381 
L 3353 903 
z
M 2100 3559 
L 678 1381 
L 2100 1381 
L 2100 3559 
z
" transform="scale(0.015625)"/>
      <path id="Consolas-268" d="M 3116 0 
L 550 0 
L 550 506 
L 1600 506 
L 1600 3488 
L 622 2956 
L 422 3419 
L 1722 4103 
L 2203 4103 
L 2203 506 
L 3116 506 
L 3116 0 
z
" transform="scale(0.015625)"/>
     </defs>
     <use xlink:href="#Consolas-26b"/>
     <use xlink:href="#Consolas-268" transform="translate(54.984375 0)"/>
    </g>
   </g>
   <g id="text_10">
    <!-- 45 -->
    <g style="fill: #e8ecf4" transform="translate(204.936103 148.984274) scale(0.105 -0.105)">
     <defs>
      <path id="Consolas-26c" d="M 3047 1306 
Q 3047 1003 2915 753 
Q 2784 503 2554 323 
Q 2325 144 2012 44 
Q 1700 -56 1338 -56 
Q 1247 -56 1142 -51 
Q 1038 -47 934 -39 
Q 831 -31 732 -22 
Q 634 -13 556 0 
L 556 494 
Q 725 453 942 434 
Q 1159 416 1381 416 
Q 1631 416 1831 475 
Q 2031 534 2172 645 
Q 2313 756 2388 914 
Q 2463 1072 2463 1269 
Q 2463 1650 2189 1823 
Q 1916 1997 1403 1997 
L 628 1997 
L 628 4084 
L 2828 4084 
L 2828 3609 
L 1141 3609 
L 1141 2463 
L 1497 2463 
Q 1791 2463 2069 2409 
Q 2347 2356 2564 2223 
Q 2781 2091 2914 1867 
Q 3047 1644 3047 1306 
z
" transform="scale(0.015625)"/>
     </defs>
     <use xlink:href="#Consolas-26b"/>
     <use xlink:href="#Consolas-26c" transform="translate(54.984375 0)"/>
    </g>
   </g>
   <g id="text_11">
    <!-- 52 -->
    <g style="fill: #e8ecf4" transform="translate(275.22412 148.984274) scale(0.105 -0.105)">
     <defs>
      <path id="Consolas-269" d="M 3150 0 
L 459 0 
L 459 488 
L 1516 1538 
Q 1775 1794 1937 1981 
Q 2100 2169 2190 2323 
Q 2281 2478 2312 2615 
Q 2344 2753 2344 2913 
Q 2344 3063 2303 3198 
Q 2263 3334 2178 3437 
Q 2094 3541 1959 3600 
Q 1825 3659 1638 3659 
Q 1378 3659 1165 3543 
Q 953 3428 775 3244 
L 475 3603 
Q 706 3847 1007 3994 
Q 1309 4141 1709 4141 
Q 1981 4141 2204 4059 
Q 2428 3978 2590 3825 
Q 2753 3672 2842 3450 
Q 2931 3228 2931 2950 
Q 2931 2716 2868 2516 
Q 2806 2316 2679 2117 
Q 2553 1919 2361 1706 
Q 2169 1494 1906 1241 
L 1166 519 
L 3150 519 
L 3150 0 
z
" transform="scale(0.015625)"/>
     </defs>
     <use xlink:href="#Consolas-26c"/>
     <use xlink:href="#Consolas-269" transform="translate(54.984375 0)"/>
    </g>
   </g>
   <g id="text_12">
    <!-- 경영 -->
    <g style="fill: #e8ecf4" transform="translate(61.059133 181.799645) scale(0.105 -0.105)">
     <defs>
      <path id="Pretendard-Medium-2001" d="M 1756 4744 
C 913 4750 288 4188 288 3400 
C 288 2619 913 2056 1756 2063 
C 2219 2059 2616 2231 2875 2519 
L 4281 2519 
L 4281 1763 
L 4875 1763 
L 4875 5069 
L 4281 5069 
L 4281 4281 
L 2881 4281 
C 2619 4572 2222 4747 1756 4744 
z
M 1756 4231 
C 2269 4238 2644 3900 2644 3400 
C 2644 2913 2269 2563 1756 2569 
C 1231 2563 856 2913 856 3400 
C 856 3900 1231 4238 1756 4231 
z
M 3000 1638 
C 1831 1638 1100 1244 1106 556 
C 1100 -125 1831 -525 3000 -519 
C 4163 -525 4894 -125 4894 556 
C 4894 1244 4163 1638 3000 1638 
z
M 3000 1181 
C 3825 1181 4313 956 4313 556 
C 4313 169 3825 -50 3000 -50 
C 2181 -50 1681 169 1688 556 
C 1681 956 2181 1181 3000 1181 
z
M 3150 3806 
L 4281 3806 
L 4281 3006 
L 3156 3006 
C 3191 3128 3213 3263 3213 3400 
C 3213 3544 3191 3681 3150 3806 
z
" transform="scale(0.015625)"/>
     </defs>
     <use xlink:href="#Pretendard-Medium-6bd"/>
     <use xlink:href="#Pretendard-Medium-2001" transform="translate(86.421875 0)"/>
    </g>
   </g>
   <g id="text_13">
    <!-- 88 -->
    <g style="fill: #e8ecf4" transform="translate(134.648087 181.540529) scale(0.105 -0.105)">
     <defs>
      <path id="Consolas-26f" d="M 3150 1025 
Q 3150 766 3044 564 
Q 2938 363 2747 225 
Q 2556 88 2297 16 
Q 2038 -56 1734 -56 
Q 1400 -56 1145 19 
Q 891 94 719 228 
Q 547 363 459 547 
Q 372 731 372 953 
Q 372 1328 581 1600 
Q 791 1872 1228 2094 
Q 828 2297 643 2545 
Q 459 2794 459 3116 
Q 459 3313 540 3497 
Q 622 3681 786 3825 
Q 950 3969 1197 4055 
Q 1444 4141 1778 4141 
Q 2094 4141 2333 4073 
Q 2572 4006 2734 3881 
Q 2897 3756 2978 3578 
Q 3059 3400 3059 3181 
Q 3059 2825 2861 2575 
Q 2663 2325 2297 2138 
Q 2478 2047 2634 1937 
Q 2791 1828 2906 1693 
Q 3022 1559 3086 1393 
Q 3150 1228 3150 1025 
z
M 2503 3138 
Q 2503 3416 2308 3552 
Q 2113 3688 1759 3688 
Q 1409 3688 1214 3553 
Q 1019 3419 1019 3150 
Q 1019 3028 1066 2925 
Q 1113 2822 1211 2731 
Q 1309 2641 1456 2553 
Q 1603 2466 1806 2375 
Q 2159 2541 2331 2720 
Q 2503 2900 2503 3138 
z
M 2559 984 
Q 2559 1100 2521 1209 
Q 2484 1319 2387 1425 
Q 2291 1531 2128 1637 
Q 1966 1744 1716 1856 
Q 1503 1753 1358 1651 
Q 1213 1550 1123 1445 
Q 1034 1341 996 1228 
Q 959 1116 959 991 
Q 959 850 1020 742 
Q 1081 634 1187 559 
Q 1294 484 1441 446 
Q 1588 409 1759 409 
Q 1925 409 2072 443 
Q 2219 478 2326 548 
Q 2434 619 2496 726 
Q 2559 834 2559 984 
z
" transform="scale(0.015625)"/>
     </defs>
     <use xlink:href="#Consolas-26f"/>
     <use xlink:href="#Consolas-26f" transform="translate(54.984375 0)"/>
    </g>
   </g>
   <g id="text_14">
    <!-- 83 -->
    <g style="fill: #e8ecf4" transform="translate(204.936103 181.540529) scale(0.105 -0.105)">
     <defs>
      <path id="Consolas-26a" d="M 3072 1241 
Q 3072 972 2962 736 
Q 2853 500 2634 323 
Q 2416 147 2084 45 
Q 1753 -56 1313 -56 
Q 1069 -56 875 -40 
Q 681 -25 513 0 
L 513 488 
Q 706 453 922 434 
Q 1138 416 1363 416 
Q 1669 416 1886 470 
Q 2103 525 2240 628 
Q 2378 731 2440 878 
Q 2503 1025 2503 1209 
Q 2503 1378 2428 1503 
Q 2353 1628 2217 1712 
Q 2081 1797 1892 1839 
Q 1703 1881 1478 1881 
L 1013 1881 
L 1013 2328 
L 1484 2328 
Q 1669 2328 1820 2376 
Q 1972 2425 2080 2515 
Q 2188 2606 2245 2739 
Q 2303 2872 2303 3041 
Q 2303 3369 2103 3519 
Q 1903 3669 1516 3669 
Q 1309 3669 1090 3628 
Q 872 3588 622 3506 
L 622 3981 
Q 728 4019 848 4048 
Q 969 4078 1089 4098 
Q 1209 4119 1328 4130 
Q 1447 4141 1556 4141 
Q 1881 4141 2128 4070 
Q 2375 4000 2540 3869 
Q 2706 3738 2790 3550 
Q 2875 3363 2875 3128 
Q 2875 2778 2695 2540 
Q 2516 2303 2203 2163 
Q 2363 2138 2517 2063 
Q 2672 1988 2795 1870 
Q 2919 1753 2995 1593 
Q 3072 1434 3072 1241 
z
" transform="scale(0.015625)"/>
     </defs>
     <use xlink:href="#Consolas-26f"/>
     <use xlink:href="#Consolas-26a" transform="translate(54.984375 0)"/>
    </g>
   </g>
   <g id="text_15">
    <!-- 80 -->
    <g style="fill: #e8ecf4" transform="translate(275.22412 181.540529) scale(0.105 -0.105)">
     <defs>
      <path id="Consolas-265" d="M 3244 2041 
Q 3244 1572 3150 1186 
Q 3056 800 2865 523 
Q 2675 247 2392 95 
Q 2109 -56 1728 -56 
Q 1400 -56 1131 67 
Q 863 191 672 447 
Q 481 703 378 1100 
Q 275 1497 275 2041 
Q 275 2509 370 2896 
Q 466 3284 655 3561 
Q 844 3838 1128 3989 
Q 1413 4141 1791 4141 
Q 2119 4141 2387 4017 
Q 2656 3894 2847 3636 
Q 3038 3378 3141 2981 
Q 3244 2584 3244 2041 
z
M 2694 2022 
Q 2694 2128 2686 2233 
Q 2678 2338 2669 2438 
L 941 1153 
Q 988 991 1059 853 
Q 1131 716 1232 617 
Q 1334 519 1464 464 
Q 1594 409 1759 409 
Q 1972 409 2145 512 
Q 2319 616 2441 819 
Q 2563 1022 2628 1323 
Q 2694 1625 2694 2022 
z
M 825 2059 
Q 825 1963 826 1866 
Q 828 1769 838 1678 
L 2566 2956 
Q 2519 3116 2447 3247 
Q 2375 3378 2275 3473 
Q 2175 3569 2047 3622 
Q 1919 3675 1759 3675 
Q 1547 3675 1373 3572 
Q 1200 3469 1078 3264 
Q 956 3059 890 2757 
Q 825 2456 825 2059 
z
" transform="scale(0.015625)"/>
     </defs>
     <use xlink:href="#Consolas-26f"/>
     <use xlink:href="#Consolas-265" transform="translate(54.984375 0)"/>
    </g>
   </g>
  </g>
  <g id="axes_2">
   <g id="patch_15">
    <path d="M 385.069091 303.791412 
L 684.36 303.791412 
L 684.36 48.767412 
L 385.069091 48.767412 
z
" style="fill: #0b0d12"/>
   </g>
   <g id="matplotlib.axis_3"/>
   <g id="matplotlib.axis_4"/>
   <g id="patch_16">
    <path d="M 394.138512 124.517115 
L 464.426529 124.517115 
L 464.426529 94.217234 
L 394.138512 94.217234 
z
" clip-path="url(#pe77e964ef1)" style="fill: #101a10; stroke: #3c5220; stroke-width: 1.1; stroke-linejoin: miter"/>
   </g>
   <g id="patch_17">
    <path d="M 464.426529 124.517115 
L 534.714545 124.517115 
L 534.714545 94.217234 
L 464.426529 94.217234 
z
" clip-path="url(#pe77e964ef1)" style="fill: #101a10; stroke: #3c5220; stroke-width: 1.1; stroke-linejoin: miter"/>
   </g>
   <g id="patch_18">
    <path d="M 534.714545 124.517115 
L 605.002562 124.517115 
L 605.002562 94.217234 
L 534.714545 94.217234 
z
" clip-path="url(#pe77e964ef1)" style="fill: #101a10; stroke: #3c5220; stroke-width: 1.1; stroke-linejoin: miter"/>
   </g>
   <g id="patch_19">
    <path d="M 394.138512 154.816996 
L 464.426529 154.816996 
L 464.426529 124.517115 
L 394.138512 124.517115 
z
" clip-path="url(#pe77e964ef1)" style="fill: #12151d; stroke: #2a3040; stroke-width: 1.1; stroke-linejoin: miter"/>
   </g>
   <g id="patch_20">
    <path d="M 464.426529 154.816996 
L 534.714545 154.816996 
L 534.714545 124.517115 
L 464.426529 124.517115 
z
" clip-path="url(#pe77e964ef1)" style="fill: #12151d; stroke: #2a3040; stroke-width: 1.1; stroke-linejoin: miter"/>
   </g>
   <g id="patch_21">
    <path d="M 534.714545 154.816996 
L 605.002562 154.816996 
L 605.002562 124.517115 
L 534.714545 124.517115 
z
" clip-path="url(#pe77e964ef1)" style="fill: #12151d; stroke: #2a3040; stroke-width: 1.1; stroke-linejoin: miter"/>
   </g>
   <g id="patch_22">
    <path d="M 394.138512 185.116877 
L 464.426529 185.116877 
L 464.426529 154.816996 
L 394.138512 154.816996 
z
" clip-path="url(#pe77e964ef1)" style="fill: #12151d; stroke: #2a3040; stroke-width: 1.1; stroke-linejoin: miter"/>
   </g>
   <g id="patch_23">
    <path d="M 464.426529 185.116877 
L 534.714545 185.116877 
L 534.714545 154.816996 
L 464.426529 154.816996 
z
" clip-path="url(#pe77e964ef1)" style="fill: #12151d; stroke: #2a3040; stroke-width: 1.1; stroke-linejoin: miter"/>
   </g>
   <g id="patch_24">
    <path d="M 534.714545 185.116877 
L 605.002562 185.116877 
L 605.002562 154.816996 
L 534.714545 154.816996 
z
" clip-path="url(#pe77e964ef1)" style="fill: #12151d; stroke: #2a3040; stroke-width: 1.1; stroke-linejoin: miter"/>
   </g>
   <g id="patch_25">
    <path d="M 394.138512 215.416759 
L 464.426529 215.416759 
L 464.426529 185.116877 
L 394.138512 185.116877 
z
" clip-path="url(#pe77e964ef1)" style="fill: #12151d; stroke: #2a3040; stroke-width: 1.1; stroke-linejoin: miter"/>
   </g>
   <g id="patch_26">
    <path d="M 464.426529 215.416759 
L 534.714545 215.416759 
L 534.714545 185.116877 
L 464.426529 185.116877 
z
" clip-path="url(#pe77e964ef1)" style="fill: #12151d; stroke: #2a3040; stroke-width: 1.1; stroke-linejoin: miter"/>
   </g>
   <g id="patch_27">
    <path d="M 534.714545 215.416759 
L 605.002562 215.416759 
L 605.002562 185.116877 
L 534.714545 185.116877 
z
" clip-path="url(#pe77e964ef1)" style="fill: #12151d; stroke: #2a3040; stroke-width: 1.1; stroke-linejoin: miter"/>
   </g>
   <g id="patch_28">
    <path d="M 394.138512 245.71664 
L 464.426529 245.71664 
L 464.426529 215.416759 
L 394.138512 215.416759 
z
" clip-path="url(#pe77e964ef1)" style="fill: #12151d; stroke: #2a3040; stroke-width: 1.1; stroke-linejoin: miter"/>
   </g>
   <g id="patch_29">
    <path d="M 464.426529 245.71664 
L 534.714545 245.71664 
L 534.714545 215.416759 
L 464.426529 215.416759 
z
" clip-path="url(#pe77e964ef1)" style="fill: #12151d; stroke: #2a3040; stroke-width: 1.1; stroke-linejoin: miter"/>
   </g>
   <g id="patch_30">
    <path d="M 534.714545 245.71664 
L 605.002562 245.71664 
L 605.002562 215.416759 
L 534.714545 215.416759 
z
" clip-path="url(#pe77e964ef1)" style="fill: #12151d; stroke: #2a3040; stroke-width: 1.1; stroke-linejoin: miter"/>
   </g>
   <g id="text_16">
    <!-- 한 행 = 한 관측, 한 열 = 한 변수 -->
    <g style="fill: #a8e05f" transform="translate(394.138512 270.966541) scale(0.12 -0.12)">
     <defs>
      <path id="Pretendard-Medium-2f5c" d="M 4606 5063 
L 4013 5063 
L 4013 875 
L 4606 875 
L 4606 2769 
L 5419 2769 
L 5419 3263 
L 4606 3263 
L 4606 5063 
z
M 3550 4413 
L 2181 4413 
L 2181 5069 
L 1588 5069 
L 1588 4413 
L 213 4413 
L 213 3931 
L 3550 3931 
L 3550 4413 
z
M 1881 3663 
C 1069 3663 519 3244 519 2606 
C 519 1969 1069 1556 1881 1556 
C 2688 1556 3238 1969 3238 2606 
C 3238 3244 2688 3663 1881 3663 
z
M 1881 3206 
C 2356 3206 2675 2975 2681 2606 
C 2675 2244 2356 2019 1881 2019 
C 1406 2019 1088 2244 1094 2606 
C 1088 2975 1406 3206 1881 3206 
z
M 4844 69 
L 1650 69 
L 1650 1206 
L 1056 1206 
L 1056 -413 
L 4844 -413 
L 4844 69 
z
" transform="scale(0.015625)"/>
      <path id="Pretendard-Medium-2f89" d="M 4981 5069 
L 4419 5069 
L 4419 3588 
L 3769 3588 
L 3769 4963 
L 3213 4963 
L 3213 1731 
L 3769 1731 
L 3769 3100 
L 4419 3100 
L 4419 1538 
L 4981 1538 
L 4981 5069 
z
M 3006 4431 
L 1894 4431 
L 1894 5025 
L 1306 5025 
L 1306 4431 
L 175 4431 
L 175 3963 
L 3006 3963 
L 3006 4431 
z
M 1594 3700 
C 894 3700 394 3319 394 2738 
C 394 2156 894 1775 1594 1775 
C 2306 1775 2806 2156 2806 2738 
C 2806 3319 2306 3700 1594 3700 
z
M 1594 3263 
C 2000 3263 2269 3056 2269 2738 
C 2269 2419 2000 2206 1594 2206 
C 1200 2206 925 2419 925 2738 
C 925 3056 1200 3263 1594 3263 
z
M 3106 1456 
C 1919 1456 1206 1100 1213 463 
C 1206 -163 1919 -525 3106 -519 
C 4294 -525 5006 -163 5013 463 
C 5006 1100 4294 1456 3106 1456 
z
M 3106 1000 
C 3944 1000 4413 813 4419 463 
C 4413 125 3944 -69 3106 -63 
C 2275 -69 1794 125 1800 463 
C 1794 813 2275 1000 3106 1000 
z
" transform="scale(0.015625)"/>
      <path id="Pretendard-Medium-362f" d="M 619 2656 
L 3456 2656 
L 3456 3238 
L 619 3238 
L 619 2656 
z
M 619 1288 
L 3456 1288 
L 3456 1875 
L 619 1875 
L 619 1288 
z
" transform="scale(0.015625)"/>
      <path id="Pretendard-Medium-700" d="M 3325 4644 
L 500 4644 
L 500 4156 
L 2744 4156 
C 2734 3803 2716 3353 2594 2731 
L 3181 2675 
C 3319 3400 3319 3956 3325 4331 
L 3325 4644 
z
M 1894 3388 
L 1306 3388 
L 1306 2213 
C 897 2200 506 2197 163 2194 
L 219 1713 
C 1206 1719 2544 1738 3713 1944 
L 3675 2375 
C 3113 2294 2494 2250 1894 2231 
L 1894 3388 
z
M 4638 5069 
L 4031 5069 
L 4031 863 
L 4638 863 
L 4638 2788 
L 5406 2788 
L 5406 3288 
L 4638 3288 
L 4638 5069 
z
M 4819 69 
L 1606 69 
L 1606 1244 
L 1013 1244 
L 1013 -413 
L 4819 -413 
L 4819 69 
z
" transform="scale(0.015625)"/>
      <path id="Pretendard-Medium-2821" d="M 5313 2256 
L 206 2256 
L 206 1781 
L 5313 1781 
L 5313 2256 
z
M 4688 1238 
L 775 1238 
L 775 763 
L 4088 763 
L 4088 -531 
L 4688 -531 
L 4688 1238 
z
M 3050 5075 
L 2463 5075 
L 2463 4519 
L 719 4519 
L 719 4050 
L 2431 4050 
C 2369 3497 1597 3084 481 2994 
L 669 2538 
C 1628 2628 2409 2953 2756 3475 
C 3100 2953 3881 2628 4844 2538 
L 5031 2994 
C 3909 3084 3138 3497 3088 4050 
L 4800 4050 
L 4800 4519 
L 3050 4519 
L 3050 5075 
z
" transform="scale(0.015625)"/>
      <path id="Pretendard-Medium-335a" d="M 1213 431 
L 513 431 
L 181 -1294 
L 713 -1294 
L 1213 431 
z
" transform="scale(0.015625)"/>
     </defs>
     <use xlink:href="#Pretendard-Medium-2f5c"/>
     <use xlink:href="#Pretendard-Medium-2" transform="translate(86.421875 0)"/>
     <use xlink:href="#Pretendard-Medium-2f89" transform="translate(110.84375 0)"/>
     <use xlink:href="#Pretendard-Medium-2" transform="translate(197.265625 0)"/>
     <use xlink:href="#Pretendard-Medium-362f" transform="translate(221.6875 0)"/>
     <use xlink:href="#Pretendard-Medium-2" transform="translate(285.265625 0)"/>
     <use xlink:href="#Pretendard-Medium-2f5c" transform="translate(309.6875 0)"/>
     <use xlink:href="#Pretendard-Medium-2" transform="translate(396.109375 0)"/>
     <use xlink:href="#Pretendard-Medium-700" transform="translate(420.53125 0)"/>
     <use xlink:href="#Pretendard-Medium-2821" transform="translate(506.953125 0)"/>
     <use xlink:href="#Pretendard-Medium-335a" transform="translate(593.375 0)"/>
     <use xlink:href="#Pretendard-Medium-2" transform="translate(619.015625 0)"/>
     <use xlink:href="#Pretendard-Medium-2f5c" transform="translate(643.4375 0)"/>
     <use xlink:href="#Pretendard-Medium-2" transform="translate(729.859375 0)"/>
     <use xlink:href="#Pretendard-Medium-1ff4" transform="translate(754.28125 0)"/>
     <use xlink:href="#Pretendard-Medium-2" transform="translate(840.703125 0)"/>
     <use xlink:href="#Pretendard-Medium-362f" transform="translate(865.125 0)"/>
     <use xlink:href="#Pretendard-Medium-2" transform="translate(928.703125 0)"/>
     <use xlink:href="#Pretendard-Medium-2f5c" transform="translate(953.125 0)"/>
     <use xlink:href="#Pretendard-Medium-2" transform="translate(1039.546875 0)"/>
     <use xlink:href="#Pretendard-Medium-16c0" transform="translate(1063.96875 0)"/>
     <use xlink:href="#Pretendard-Medium-1c18" transform="translate(1150.390625 0)"/>
    </g>
   </g>
   <g id="text_17">
    <!-- 행만 늘어나고 구조는 그대로 -->
    <g style="fill: #9aa4b8" transform="translate(394.138512 313.7309) scale(0.105 -0.105)">
     <defs>
      <path id="Pretendard-Medium-13cc" d="M 3044 4575 
L 425 4575 
L 425 1963 
L 3044 1963 
L 3044 4575 
z
M 1006 4094 
L 2463 4094 
L 2463 2431 
L 1006 2431 
L 1006 4094 
z
M 4606 5075 
L 4013 5075 
L 4013 969 
L 4606 969 
L 4606 2900 
L 5419 2900 
L 5419 3400 
L 4606 3400 
L 4606 5075 
z
M 4844 69 
L 1650 69 
L 1650 1363 
L 1056 1363 
L 1056 -413 
L 4844 -413 
L 4844 69 
z
" transform="scale(0.015625)"/>
      <path id="Pretendard-Medium-c98" d="M 4725 3794 
L 1463 3794 
L 1463 4988 
L 881 4988 
L 881 3313 
L 4725 3313 
L 4725 3794 
z
M 5325 2819 
L 200 2819 
L 200 2344 
L 5325 2344 
L 5325 2819 
z
M 4681 1894 
L 825 1894 
L 825 1431 
L 4094 1431 
L 4094 963 
L 838 963 
L 838 -463 
L 4875 -463 
L 4875 6 
L 1431 6 
L 1431 525 
L 4681 525 
L 4681 1894 
z
" transform="scale(0.015625)"/>
      <path id="Pretendard-Medium-a98" d="M 5438 2869 
L 4569 2869 
L 4569 5069 
L 3975 5069 
L 3975 -525 
L 4569 -525 
L 4569 2381 
L 5438 2381 
L 5438 2869 
z
M 1006 4525 
L 419 4525 
L 419 881 
L 881 881 
C 1719 881 2606 931 3563 1125 
L 3494 1625 
C 2603 1441 1788 1375 1006 1375 
L 1006 4525 
z
" transform="scale(0.015625)"/>
      <path id="Pretendard-Medium-6e0" d="M 4738 4531 
L 744 4531 
L 744 4050 
L 4144 4050 
L 4144 3981 
C 4144 3306 4144 2513 3925 1431 
L 4525 1369 
C 4738 2513 4738 3288 4738 3981 
L 4738 4531 
z
M 5313 719 
L 2738 719 
L 2738 2694 
L 2150 2694 
L 2150 719 
L 206 719 
L 206 225 
L 5313 225 
L 5313 719 
z
" transform="scale(0.015625)"/>
      <path id="Pretendard-Medium-c94" d="M 4738 3431 
L 1469 3431 
L 1469 4869 
L 881 4869 
L 881 2956 
L 4738 2956 
L 4738 3431 
z
M 5325 2250 
L 200 2250 
L 200 1775 
L 5325 1775 
L 5325 2250 
z
M 4775 88 
L 1431 88 
L 1431 1244 
L 838 1244 
L 838 -400 
L 4775 -400 
L 4775 88 
z
" transform="scale(0.015625)"/>
      <path id="Pretendard-Medium-d00" d="M 5013 5069 
L 4444 5069 
L 4444 2850 
L 3719 2850 
L 3719 4956 
L 3175 4956 
L 3175 -244 
L 3719 -244 
L 3719 2363 
L 4444 2363 
L 4444 -531 
L 5013 -531 
L 5013 5069 
z
M 2494 4394 
L 394 4394 
L 394 813 
L 769 813 
C 1588 819 2163 844 2838 981 
L 2794 1469 
C 2194 1356 1675 1325 988 1319 
L 988 3913 
L 2494 3913 
L 2494 4394 
z
" transform="scale(0.015625)"/>
     </defs>
     <use xlink:href="#Pretendard-Medium-2f89"/>
     <use xlink:href="#Pretendard-Medium-13cc" transform="translate(86.421875 0)"/>
     <use xlink:href="#Pretendard-Medium-2" transform="translate(172.84375 0)"/>
     <use xlink:href="#Pretendard-Medium-c98" transform="translate(197.265625 0)"/>
     <use xlink:href="#Pretendard-Medium-1fb4" transform="translate(283.6875 0)"/>
     <use xlink:href="#Pretendard-Medium-a98" transform="translate(370.109375 0)"/>
     <use xlink:href="#Pretendard-Medium-6e0" transform="translate(456.53125 0)"/>
     <use xlink:href="#Pretendard-Medium-2" transform="translate(542.953125 0)"/>
     <use xlink:href="#Pretendard-Medium-76c" transform="translate(567.375 0)"/>
     <use xlink:href="#Pretendard-Medium-2270" transform="translate(653.796875 0)"/>
     <use xlink:href="#Pretendard-Medium-c94" transform="translate(740.21875 0)"/>
     <use xlink:href="#Pretendard-Medium-2" transform="translate(826.640625 0)"/>
     <use xlink:href="#Pretendard-Medium-7f8" transform="translate(851.0625 0)"/>
     <use xlink:href="#Pretendard-Medium-d00" transform="translate(937.484375 0)"/>
     <use xlink:href="#Pretendard-Medium-125c" transform="translate(1023.90625 0)"/>
    </g>
    <!-- 대부분의 분석 도구가 요구하는 형태 -->
    <g style="fill: #9aa4b8" transform="translate(394.138512 336.312257) scale(0.105 -0.105)">
     <defs>
      <path id="Pretendard-Medium-1780" d="M 5325 1775 
L 200 1775 
L 200 1306 
L 2456 1306 
L 2456 -531 
L 3038 -531 
L 3038 1306 
L 5325 1306 
L 5325 1775 
z
M 1425 4844 
L 838 4844 
L 838 2413 
L 4681 2413 
L 4681 4844 
L 4088 4844 
L 4088 4113 
L 1425 4113 
L 1425 4844 
z
M 1425 2888 
L 1425 3638 
L 4088 3638 
L 4088 2888 
L 1425 2888 
z
" transform="scale(0.015625)"/>
      <path id="Pretendard-Medium-1784" d="M 5325 2138 
L 200 2138 
L 200 1663 
L 2513 1663 
L 2513 631 
L 3100 631 
L 3100 1663 
L 5325 1663 
L 5325 2138 
z
M 4756 69 
L 1425 69 
L 1425 1119 
L 838 1119 
L 838 -413 
L 4756 -413 
L 4756 69 
z
M 1463 4894 
L 875 4894 
L 875 2631 
L 4650 2631 
L 4650 4894 
L 4056 4894 
L 4056 4213 
L 1463 4213 
L 1463 4894 
z
M 1463 3106 
L 1463 3769 
L 4056 3769 
L 4056 3106 
L 1463 3106 
z
" transform="scale(0.015625)"/>
      <path id="Pretendard-Medium-2158" d="M 2031 4669 
C 1150 4675 500 4125 506 3338 
C 500 2550 1150 2000 2031 2000 
C 2919 2000 3550 2550 3556 3338 
C 3550 4125 2919 4675 2031 4669 
z
M 2031 4156 
C 2575 4156 2975 3831 2975 3338 
C 2975 2844 2575 2519 2031 2519 
C 1488 2519 1088 2844 1094 3338 
C 1088 3831 1488 4156 2031 4156 
z
M 4838 5069 
L 4244 5069 
L 4244 -544 
L 4838 -544 
L 4838 5069 
z
M 238 1156 
L 313 663 
C 1313 663 2669 669 3938 913 
L 3894 1344 
C 2669 1169 1256 1156 238 1156 
z
" transform="scale(0.015625)"/>
      <path id="Pretendard-Medium-1b1d" d="M 2181 4175 
L 2181 4781 
L 1588 4781 
L 1588 4206 
C 1581 3381 1075 2644 200 2338 
L 519 1856 
C 1172 2103 1647 2594 1894 3219 
C 2131 2650 2588 2197 3206 1975 
L 3531 2450 
C 2688 2731 2175 3431 2181 4175 
z
M 4875 1456 
L 1081 1456 
L 1081 988 
L 4281 988 
L 4281 -531 
L 4875 -531 
L 4875 1456 
z
M 4875 5069 
L 4281 5069 
L 4281 3938 
L 3100 3938 
L 3100 3450 
L 4281 3450 
L 4281 1750 
L 4875 1750 
L 4875 5069 
z
" transform="scale(0.015625)"/>
      <path id="Pretendard-Medium-2f58" d="M 4569 5069 
L 3981 5069 
L 3981 -531 
L 4569 -531 
L 4569 2306 
L 5469 2306 
L 5469 2800 
L 4569 2800 
L 4569 5069 
z
M 3494 4194 
L 2150 4194 
L 2150 4994 
L 1556 4994 
L 1556 4194 
L 175 4194 
L 175 3706 
L 3494 3706 
L 3494 4194 
z
M 1856 3294 
C 1050 3294 463 2756 463 1994 
C 463 1225 1050 694 1856 688 
C 2656 694 3244 1225 3250 1994 
C 3244 2756 2656 3294 1856 3294 
z
M 1856 2806 
C 2331 2806 2681 2475 2681 1994 
C 2681 1506 2331 1181 1856 1188 
C 1381 1181 1025 1506 1031 1994 
C 1025 2475 1381 2806 1856 2806 
z
" transform="scale(0.015625)"/>
      <path id="Pretendard-Medium-3015" d="M 3363 4481 
L 2113 4481 
L 2113 5119 
L 1525 5119 
L 1525 4481 
L 213 4481 
L 213 4006 
L 3363 4006 
L 3363 4481 
z
M 1813 3750 
C 1050 3750 525 3331 525 2706 
C 525 2081 1050 1669 1813 1669 
C 2569 1669 3100 2081 3106 2706 
C 3100 3331 2569 3750 1813 3750 
z
M 1813 3300 
C 2250 3300 2550 3069 2556 2706 
C 2550 2344 2250 2119 1813 2119 
C 1369 2119 1081 2344 1081 2706 
C 1081 3069 1369 3300 1813 3300 
z
M 4875 5069 
L 4281 5069 
L 4281 3763 
L 3381 3763 
L 3381 3281 
L 4281 3281 
L 4281 2663 
L 3375 2663 
L 3375 2181 
L 4281 2181 
L 4281 1463 
L 4875 1463 
L 4875 5069 
z
M 3013 1406 
C 1831 1406 1113 1056 1113 444 
C 1113 -163 1831 -525 3013 -519 
C 4188 -525 4906 -163 4906 444 
C 4906 1056 4188 1406 3013 1406 
z
M 3013 950 
C 3800 950 4275 775 4275 444 
C 4275 119 3800 -69 3013 -63 
C 2206 -69 1731 119 1731 444 
C 1731 775 2206 950 3013 950 
z
" transform="scale(0.015625)"/>
      <path id="Pretendard-Medium-2adc" d="M 2663 4444 
L 419 4444 
L 419 819 
L 794 819 
C 1688 819 2231 844 2888 963 
L 2838 1450 
C 2244 1353 1744 1322 988 1319 
L 988 2500 
L 2569 2500 
L 2569 2969 
L 988 2969 
L 988 3969 
L 2663 3969 
L 2663 4444 
z
M 5025 5069 
L 4456 5069 
L 4456 2844 
L 3781 2844 
L 3781 4963 
L 3213 4963 
L 3213 -256 
L 3781 -256 
L 3781 2363 
L 4456 2363 
L 4456 -531 
L 5025 -531 
L 5025 5069 
z
" transform="scale(0.015625)"/>
     </defs>
     <use xlink:href="#Pretendard-Medium-d00"/>
     <use xlink:href="#Pretendard-Medium-1780" transform="translate(86.421875 0)"/>
     <use xlink:href="#Pretendard-Medium-1784" transform="translate(172.84375 0)"/>
     <use xlink:href="#Pretendard-Medium-2158" transform="translate(259.265625 0)"/>
     <use xlink:href="#Pretendard-Medium-2" transform="translate(345.6875 0)"/>
     <use xlink:href="#Pretendard-Medium-1784" transform="translate(370.109375 0)"/>
     <use xlink:href="#Pretendard-Medium-1b1d" transform="translate(456.53125 0)"/>
     <use xlink:href="#Pretendard-Medium-2" transform="translate(542.953125 0)"/>
     <use xlink:href="#Pretendard-Medium-dc4" transform="translate(567.375 0)"/>
     <use xlink:href="#Pretendard-Medium-76c" transform="translate(653.796875 0)"/>
     <use xlink:href="#Pretendard-Medium-600" transform="translate(740.21875 0)"/>
     <use xlink:href="#Pretendard-Medium-2" transform="translate(826.640625 0)"/>
     <use xlink:href="#Pretendard-Medium-2094" transform="translate(851.0625 0)"/>
     <use xlink:href="#Pretendard-Medium-76c" transform="translate(937.484375 0)"/>
     <use xlink:href="#Pretendard-Medium-2f58" transform="translate(1023.90625 0)"/>
     <use xlink:href="#Pretendard-Medium-c94" transform="translate(1110.328125 0)"/>
     <use xlink:href="#Pretendard-Medium-2" transform="translate(1196.75 0)"/>
     <use xlink:href="#Pretendard-Medium-3015" transform="translate(1221.171875 0)"/>
     <use xlink:href="#Pretendard-Medium-2adc" transform="translate(1307.59375 0)"/>
    </g>
   </g>
   <g id="text_18">
    <!-- 정리 후 (tidy) -->
    <g style="fill: #a8e05f" transform="translate(385.069091 38.767412) scale(0.135 -0.135)">
     <defs>
      <path id="Pretendard-Medium-30c4" d="M 5025 4450 
L 3050 4450 
L 3050 5094 
L 2463 5094 
L 2463 4450 
L 469 4450 
L 469 3963 
L 5025 3963 
L 5025 4450 
z
M 5331 1444 
L 206 1444 
L 206 956 
L 2463 956 
L 2463 -538 
L 3050 -538 
L 3050 956 
L 5331 956 
L 5331 1444 
z
M 2756 3675 
C 1588 3675 888 3344 894 2731 
C 888 2131 1588 1800 2756 1794 
C 3919 1800 4619 2131 4619 2731 
C 4619 3344 3919 3675 2756 3675 
z
M 2756 3231 
C 3556 3231 4000 3056 4006 2731 
C 4000 2419 3556 2244 2756 2244 
C 1950 2244 1506 2419 1506 2731 
C 1506 3056 1950 3231 2756 3231 
z
" transform="scale(0.015625)"/>
      <path id="Pretendard-Medium-33d1" d="M 544 1725 
C 550 544 881 -438 1469 -1275 
L 2081 -1275 
C 1650 -650 1238 606 1238 1725 
C 1238 2838 1650 4100 2081 4719 
L 1469 4719 
C 881 3881 550 2900 544 1725 
z
" transform="scale(0.015625)"/>
      <path id="Pretendard-Medium-2d3" d="M 1994 3394 
L 1300 3394 
L 1300 4206 
L 638 4206 
L 638 3394 
L 138 3394 
L 138 2863 
L 638 2863 
L 638 863 
C 631 244 1100 -44 1625 -44 
C 1806 -44 1950 -31 2044 -19 
L 2044 563 
C 1950 556 1800 544 1706 544 
C 1494 550 1300 619 1300 1000 
L 1300 2863 
L 1994 2863 
L 1994 3394 
z
" transform="scale(0.015625)"/>
      <path id="Pretendard-Medium-23a" d="M 406 0 
L 1075 0 
L 1075 3394 
L 406 3394 
L 406 0 
z
M 744 3919 
C 969 3919 1163 4094 1163 4313 
C 1163 4531 969 4706 744 4706 
C 513 4706 319 4531 319 4313 
C 319 4094 513 3919 744 3919 
z
" transform="scale(0.015625)"/>
      <path id="Pretendard-Medium-1d7" d="M 1675 -69 
C 2294 -69 2538 306 2663 531 
L 2713 531 
L 2713 0 
L 3363 0 
L 3363 4525 
L 2694 4525 
L 2694 2844 
L 2663 2844 
C 2544 3056 2313 3438 1681 3438 
C 863 3438 256 2794 256 1688 
C 256 594 856 -69 1675 -69 
z
M 1825 500 
C 1244 500 938 1019 938 1700 
C 938 2369 1231 2869 1825 2869 
C 2400 2869 2713 2406 2713 1700 
C 2713 988 2394 500 1825 500 
z
" transform="scale(0.015625)"/>
      <path id="Pretendard-Medium-33a" d="M 819 -1275 
C 1375 -1275 1725 -988 1919 -450 
L 3319 3394 
L 2600 3394 
L 1744 763 
L 1706 763 
L 850 3394 
L 138 3394 
L 1381 -44 
L 1300 -269 
C 1144 -694 969 -713 763 -713 
C 669 -713 538 -706 463 -700 
L 463 -1256 
C 550 -1269 681 -1275 819 -1275 
z
" transform="scale(0.015625)"/>
      <path id="Pretendard-Medium-33d2" d="M 1744 1725 
C 1738 2900 1406 3881 819 4719 
L 206 4719 
C 638 4100 1050 2838 1050 1725 
C 1050 606 638 -650 206 -1275 
L 819 -1275 
C 1406 -438 1738 544 1744 1725 
z
" transform="scale(0.015625)"/>
     </defs>
     <use xlink:href="#Pretendard-Medium-2215"/>
     <use xlink:href="#Pretendard-Medium-13ac" transform="translate(86.421875 0)"/>
     <use xlink:href="#Pretendard-Medium-2" transform="translate(172.84375 0)"/>
     <use xlink:href="#Pretendard-Medium-30c4" transform="translate(197.265625 0)"/>
     <use xlink:href="#Pretendard-Medium-2" transform="translate(283.6875 0)"/>
     <use xlink:href="#Pretendard-Medium-33d1" transform="translate(308.109375 0)"/>
     <use xlink:href="#Pretendard-Medium-2d3" transform="translate(343.859375 0)"/>
     <use xlink:href="#Pretendard-Medium-23a" transform="translate(378.828125 0)"/>
     <use xlink:href="#Pretendard-Medium-1d7" transform="translate(401.96875 0)"/>
     <use xlink:href="#Pretendard-Medium-33a" transform="translate(461.734375 0)"/>
     <use xlink:href="#Pretendard-Medium-33d2" transform="translate(515.734375 0)"/>
    </g>
   </g>
   <g id="text_19">
    <!-- 학과 -->
    <g style="fill: #a8e05f" transform="translate(420.208224 112.194894) scale(0.105 -0.105)">
     <use xlink:href="#Pretendard-Medium-2f59"/>
     <use xlink:href="#Pretendard-Medium-6fc" transform="translate(86.421875 0)"/>
    </g>
   </g>
   <g id="text_20">
    <!-- 연도 -->
    <g style="fill: #a8e05f" transform="translate(490.49624 112.169465) scale(0.105 -0.105)">
     <use xlink:href="#Pretendard-Medium-1ff0"/>
     <use xlink:href="#Pretendard-Medium-dc4" transform="translate(86.421875 0)"/>
    </g>
   </g>
   <g id="text_21">
    <!-- 인원 -->
    <g style="fill: #a8e05f" transform="translate(560.784257 112.169465) scale(0.105 -0.105)">
     <defs>
      <path id="Pretendard-Medium-20d0" d="M 4863 5063 
L 4269 5063 
L 4269 1775 
L 3144 1775 
L 3144 1356 
L 4269 1356 
L 4269 819 
L 4863 819 
L 4863 5063 
z
M 5000 69 
L 1544 69 
L 1544 1231 
L 956 1231 
L 956 -413 
L 5000 -413 
L 5000 69 
z
M 181 2506 
L 256 2031 
C 709 2028 1231 2031 1775 2056 
L 1775 994 
L 2369 994 
L 2369 2088 
C 2863 2119 3366 2172 3844 2250 
L 3806 2675 
C 2613 2525 1219 2513 181 2506 
z
M 2013 4850 
C 1181 4850 619 4456 619 3863 
C 619 3269 1181 2888 2013 2888 
C 2831 2888 3400 3269 3400 3863 
C 3400 4456 2831 4850 2013 4850 
z
M 2013 4406 
C 2494 4413 2831 4200 2838 3863 
C 2831 3531 2494 3325 2013 3325 
C 1513 3325 1175 3531 1181 3863 
C 1175 4200 1513 4413 2013 4406 
z
" transform="scale(0.015625)"/>
     </defs>
     <use xlink:href="#Pretendard-Medium-2178"/>
     <use xlink:href="#Pretendard-Medium-20d0" transform="translate(86.421875 0)"/>
    </g>
   </g>
   <g id="text_22">
    <!-- 디자인 -->
    <g style="fill: #e8ecf4" transform="translate(415.671075 142.474268) scale(0.105 -0.105)">
     <use xlink:href="#Pretendard-Medium-f14"/>
     <use xlink:href="#Pretendard-Medium-2190" transform="translate(86.421875 0)"/>
     <use xlink:href="#Pretendard-Medium-2178" transform="translate(172.84375 0)"/>
    </g>
   </g>
   <g id="text_23">
    <!-- 2024 -->
    <g style="fill: #e8ecf4" transform="translate(488.023818 142.215151) scale(0.105 -0.105)">
     <use xlink:href="#Consolas-269"/>
     <use xlink:href="#Consolas-265" transform="translate(54.984375 0)"/>
     <use xlink:href="#Consolas-269" transform="translate(109.96875 0)"/>
     <use xlink:href="#Consolas-26b" transform="translate(164.953125 0)"/>
    </g>
   </g>
   <g id="text_24">
    <!-- 41 -->
    <g style="fill: #e8ecf4" transform="translate(564.085194 142.215151) scale(0.105 -0.105)">
     <use xlink:href="#Consolas-26b"/>
     <use xlink:href="#Consolas-268" transform="translate(54.984375 0)"/>
    </g>
   </g>
   <g id="text_25">
    <!-- 디자인 -->
    <g style="fill: #e8ecf4" transform="translate(415.671075 172.774149) scale(0.105 -0.105)">
     <use xlink:href="#Pretendard-Medium-f14"/>
     <use xlink:href="#Pretendard-Medium-2190" transform="translate(86.421875 0)"/>
     <use xlink:href="#Pretendard-Medium-2178" transform="translate(172.84375 0)"/>
    </g>
   </g>
   <g id="text_26">
    <!-- 2025 -->
    <g style="fill: #e8ecf4" transform="translate(488.023818 172.515033) scale(0.105 -0.105)">
     <use xlink:href="#Consolas-269"/>
     <use xlink:href="#Consolas-265" transform="translate(54.984375 0)"/>
     <use xlink:href="#Consolas-269" transform="translate(109.96875 0)"/>
     <use xlink:href="#Consolas-26c" transform="translate(164.953125 0)"/>
    </g>
   </g>
   <g id="text_27">
    <!-- 45 -->
    <g style="fill: #e8ecf4" transform="translate(564.085194 172.515033) scale(0.105 -0.105)">
     <use xlink:href="#Consolas-26b"/>
     <use xlink:href="#Consolas-26c" transform="translate(54.984375 0)"/>
    </g>
   </g>
   <g id="text_28">
    <!-- 경영 -->
    <g style="fill: #e8ecf4" transform="translate(420.208224 203.07403) scale(0.105 -0.105)">
     <use xlink:href="#Pretendard-Medium-6bd"/>
     <use xlink:href="#Pretendard-Medium-2001" transform="translate(86.421875 0)"/>
    </g>
   </g>
   <g id="text_29">
    <!-- 2024 -->
    <g style="fill: #e8ecf4" transform="translate(488.023818 202.814914) scale(0.105 -0.105)">
     <use xlink:href="#Consolas-269"/>
     <use xlink:href="#Consolas-265" transform="translate(54.984375 0)"/>
     <use xlink:href="#Consolas-269" transform="translate(109.96875 0)"/>
     <use xlink:href="#Consolas-26b" transform="translate(164.953125 0)"/>
    </g>
   </g>
   <g id="text_30">
    <!-- 88 -->
    <g style="fill: #e8ecf4" transform="translate(564.085194 202.814914) scale(0.105 -0.105)">
     <use xlink:href="#Consolas-26f"/>
     <use xlink:href="#Consolas-26f" transform="translate(54.984375 0)"/>
    </g>
   </g>
   <g id="text_31">
    <!-- 경영 -->
    <g style="fill: #e8ecf4" transform="translate(420.208224 233.373911) scale(0.105 -0.105)">
     <use xlink:href="#Pretendard-Medium-6bd"/>
     <use xlink:href="#Pretendard-Medium-2001" transform="translate(86.421875 0)"/>
    </g>
   </g>
   <g id="text_32">
    <!-- 2025 -->
    <g style="fill: #e8ecf4" transform="translate(488.023818 233.114795) scale(0.105 -0.105)">
     <use xlink:href="#Consolas-269"/>
     <use xlink:href="#Consolas-265" transform="translate(54.984375 0)"/>
     <use xlink:href="#Consolas-269" transform="translate(109.96875 0)"/>
     <use xlink:href="#Consolas-26c" transform="translate(164.953125 0)"/>
    </g>
   </g>
   <g id="text_33">
    <!-- 83 -->
    <g style="fill: #e8ecf4" transform="translate(564.085194 233.114795) scale(0.105 -0.105)">
     <use xlink:href="#Consolas-26f"/>
     <use xlink:href="#Consolas-26a" transform="translate(54.984375 0)"/>
    </g>
   </g>
  </g>
  <g id="text_34">
   <!-- 정제의 목표 : «기계가 읽을 수 있는 표» -->
   <g style="fill: #e8ecf4" transform="translate(242.201602 373.343412) scale(0.135 -0.135)">
    <defs>
     <path id="Pretendard-Medium-221c" d="M 5013 5069 
L 4444 5069 
L 4444 -531 
L 5013 -531 
L 5013 5069 
z
M 3875 4950 
L 3313 4950 
L 3313 3088 
L 2444 3088 
L 2444 2600 
L 3313 2600 
L 3313 -250 
L 3875 -250 
L 3875 4950 
z
M 1894 3506 
L 1894 3956 
L 2856 3956 
L 2856 4438 
L 294 4438 
L 294 3956 
L 1325 3956 
L 1325 3506 
C 1325 2513 919 1494 125 1013 
L 488 569 
C 1034 909 1416 1531 1619 2263 
C 1809 1584 2178 1019 2713 700 
L 3069 1138 
C 2281 1594 1894 2550 1894 3506 
z
" transform="scale(0.015625)"/>
     <path id="Pretendard-Medium-14a9" d="M 4663 4838 
L 856 4838 
L 856 2919 
L 2463 2919 
L 2463 2269 
L 206 2269 
L 206 1788 
L 5313 1788 
L 5313 2269 
L 3050 2269 
L 3050 2919 
L 4663 2919 
L 4663 4838 
z
M 1438 4369 
L 4075 4369 
L 4075 3394 
L 1438 3394 
L 1438 4369 
z
M 4688 1256 
L 775 1256 
L 775 788 
L 4088 788 
L 4088 -531 
L 4688 -531 
L 4688 1256 
z
" transform="scale(0.015625)"/>
     <path id="Pretendard-Medium-2e5c" d="M 5331 619 
L 3925 619 
L 3925 1863 
L 4844 1863 
L 4844 2344 
L 4006 2344 
L 4006 4088 
L 4863 4088 
L 4863 4575 
L 644 4575 
L 644 4088 
L 1494 4088 
L 1494 2344 
L 656 2344 
L 656 1863 
L 1581 1863 
L 1581 619 
L 206 619 
L 206 131 
L 5331 131 
L 5331 619 
z
M 2081 2344 
L 2081 4088 
L 3425 4088 
L 3425 2344 
L 2081 2344 
z
M 2175 619 
L 2175 1863 
L 3331 1863 
L 3331 619 
L 2175 619 
z
" transform="scale(0.015625)"/>
     <path id="Pretendard-Medium-3395" d="M 844 581 
C 1081 581 1288 781 1288 1025 
C 1288 1269 1081 1469 844 1469 
C 600 1469 394 1269 400 1025 
C 394 781 600 581 844 581 
z
M 844 3050 
C 1081 3050 1288 3250 1288 3494 
C 1288 3738 1081 3938 844 3938 
C 600 3938 394 3738 400 3494 
C 394 3250 600 3050 844 3050 
z
" transform="scale(0.015625)"/>
     <path id="Pretendard-Medium-830" d="M 4863 5069 
L 4263 5069 
L 4263 -531 
L 4863 -531 
L 4863 5069 
z
M 3194 4469 
L 531 4469 
L 531 3994 
L 2594 3994 
C 2478 2688 1753 1678 263 969 
L 575 488 
C 2494 1406 3194 2831 3194 4469 
z
" transform="scale(0.015625)"/>
     <path id="Pretendard-Medium-6c4" d="M 5019 5069 
L 4456 5069 
L 4456 -531 
L 5019 -531 
L 5019 5069 
z
M 3875 4925 
L 3313 4925 
L 3313 3538 
L 2556 3538 
C 2603 3809 2625 4088 2625 4375 
L 450 4375 
L 450 3888 
L 2038 3888 
C 1934 2734 1363 1794 175 1088 
L 525 663 
C 1581 1294 2178 2109 2450 3050 
L 3313 3050 
L 3313 2138 
L 2356 2138 
L 2356 1650 
L 3313 1650 
L 3313 -256 
L 3875 -256 
L 3875 4925 
z
" transform="scale(0.015625)"/>
     <path id="Pretendard-Medium-217d" d="M 4844 5069 
L 4256 5069 
L 4256 2113 
L 4844 2113 
L 4844 5069 
z
M 2788 1881 
L 900 1881 
L 900 1425 
L 2206 1425 
L 2206 956 
L 900 956 
L 900 -463 
L 1250 -463 
C 2106 -463 2594 -450 3213 -331 
L 3150 113 
C 2619 16 2172 -9 1475 -13 
L 1475 531 
L 2788 531 
L 2788 1881 
z
M 4844 1881 
L 3019 1881 
L 3019 1394 
L 4263 1394 
L 4263 -494 
L 4844 -494 
L 4844 1881 
z
M 1794 4825 
C 944 4825 319 4300 319 3556 
C 319 2813 944 2294 1794 2294 
C 2638 2294 3256 2813 3263 3556 
C 3256 4300 2638 4825 1794 4825 
z
M 1794 4331 
C 2306 4331 2688 4019 2688 3556 
C 2688 3094 2306 2775 1794 2775 
C 1275 2775 894 3094 900 3556 
C 894 4019 1275 4331 1794 4331 
z
" transform="scale(0.015625)"/>
     <path id="Pretendard-Medium-2144" d="M 2756 4975 
C 1494 4975 756 4638 756 4013 
C 756 3388 1494 3044 2756 3044 
C 4019 3044 4756 3388 4756 4013 
C 4756 4638 4019 4975 2756 4975 
z
M 2756 4538 
C 3650 4538 4144 4344 4144 4013 
C 4144 3669 3650 3488 2756 3488 
C 1863 3488 1369 3669 1375 4013 
C 1369 4344 1863 4538 2756 4538 
z
M 5313 2700 
L 206 2700 
L 206 2225 
L 5313 2225 
L 5313 2700 
z
M 4669 1794 
L 819 1794 
L 819 1350 
L 4081 1350 
L 4081 913 
L 825 913 
L 825 -475 
L 4825 -475 
L 4825 -19 
L 1406 -19 
L 1406 481 
L 4669 481 
L 4669 1794 
z
" transform="scale(0.015625)"/>
     <path id="Pretendard-Medium-2188" d="M 2150 1369 
L 2150 1638 
L 1575 1638 
L 1575 1369 
C 1569 825 1181 244 463 -13 
L 763 -450 
C 1291 -256 1659 116 1863 556 
C 2034 100 2375 -297 2913 -500 
C 3425 -288 3759 122 3938 575 
C 4134 113 4509 -259 5063 -450 
L 5356 -13 
C 4625 225 4244 788 4244 1369 
L 4244 1638 
L 3663 1638 
L 3663 1369 
C 3663 941 3409 403 2894 75 
C 2388 378 2150 888 2150 1369 
z
M 4850 5063 
L 4256 5063 
L 4256 1875 
L 4850 1875 
L 4850 5063 
z
M 1813 4756 
C 956 4756 319 4213 319 3431 
C 319 2656 956 2119 1813 2119 
C 2669 2119 3300 2656 3300 3431 
C 3300 4213 2669 4756 1813 4756 
z
M 1813 4250 
C 2338 4256 2719 3925 2719 3431 
C 2719 2944 2338 2613 1813 2613 
C 1281 2613 900 2944 900 3431 
C 900 3925 1281 4256 1813 4250 
z
" transform="scale(0.015625)"/>
    </defs>
    <use xlink:href="#Pretendard-Medium-2215"/>
    <use xlink:href="#Pretendard-Medium-221c" transform="translate(86.421875 0)"/>
    <use xlink:href="#Pretendard-Medium-2158" transform="translate(172.84375 0)"/>
    <use xlink:href="#Pretendard-Medium-2" transform="translate(259.265625 0)"/>
    <use xlink:href="#Pretendard-Medium-14a9" transform="translate(283.6875 0)"/>
    <use xlink:href="#Pretendard-Medium-2e5c" transform="translate(370.109375 0)"/>
    <use xlink:href="#Pretendard-Medium-2" transform="translate(456.53125 0)"/>
    <use xlink:href="#Pretendard-Medium-3395" transform="translate(480.953125 0)"/>
    <use xlink:href="#Pretendard-Medium-2" transform="translate(507.328125 0)"/>
    <use xlink:href="#Pretendard-Medium-343d" transform="translate(531.75 0)"/>
    <use xlink:href="#Pretendard-Medium-830" transform="translate(585.953125 0)"/>
    <use xlink:href="#Pretendard-Medium-6c4" transform="translate(672.375 0)"/>
    <use xlink:href="#Pretendard-Medium-600" transform="translate(758.796875 0)"/>
    <use xlink:href="#Pretendard-Medium-2" transform="translate(845.21875 0)"/>
    <use xlink:href="#Pretendard-Medium-217d" transform="translate(869.640625 0)"/>
    <use xlink:href="#Pretendard-Medium-2144" transform="translate(956.0625 0)"/>
    <use xlink:href="#Pretendard-Medium-2" transform="translate(1042.484375 0)"/>
    <use xlink:href="#Pretendard-Medium-1c18" transform="translate(1066.90625 0)"/>
    <use xlink:href="#Pretendard-Medium-2" transform="translate(1153.328125 0)"/>
    <use xlink:href="#Pretendard-Medium-2188" transform="translate(1177.75 0)"/>
    <use xlink:href="#Pretendard-Medium-c94" transform="translate(1264.171875 0)"/>
    <use xlink:href="#Pretendard-Medium-2" transform="translate(1350.59375 0)"/>
    <use xlink:href="#Pretendard-Medium-2e5c" transform="translate(1375.015625 0)"/>
    <use xlink:href="#Pretendard-Medium-343e" transform="translate(1461.4375 0)"/>
   </g>
  </g>
 </g>
 <defs>
  <clipPath id="pd680916920">
   <rect x="25.92" y="48.767412" width="299.290909" height="255.024"/>
  </clipPath>
  <clipPath id="pe77e964ef1">
   <rect x="385.069091" y="48.767412" width="299.290909" height="255.024"/>
  </clipPath>
 </defs>
</svg>
