<?xml version="1.0" encoding="utf-8" standalone="no"?>
<!DOCTYPE svg PUBLIC "-//W3C//DTD SVG 1.1//EN"
  "http://www.w3.org/Graphics/SVG/1.1/DTD/svg11.dtd">
<svg xmlns:xlink="http://www.w3.org/1999/xlink" width="565.459863pt" height="264.719772pt" viewBox="0 0 565.459863 264.719772" xmlns="http://www.w3.org/2000/svg" version="1.1">
 <metadata>
  <rdf:RDF xmlns:dc="http://purl.org/dc/elements/1.1/" xmlns:cc="http://creativecommons.org/ns#" xmlns:rdf="http://www.w3.org/1999/02/22-rdf-syntax-ns#">
   <cc:Work>
    <dc:type rdf:resource="http://purl.org/dc/dcmitype/StillImage"/>
    <dc:date>2026-09-14T15:48:38.926407</dc:date>
    <dc:format>image/svg+xml</dc:format>
    <dc:creator>
     <cc:Agent>
      <dc:title>Matplotlib v3.11.1, https://matplotlib.org/</dc:title>
     </cc:Agent>
    </dc:creator>
   </cc:Work>
  </rdf:RDF>
 </metadata>
 <defs>
  <style type="text/css">*{stroke-linejoin: round; stroke-linecap: butt}</style>
 </defs>
 <g id="figure_1">
  <g id="patch_1">
   <path d="M 0 264.719772 
L 565.459863 264.719772 
L 565.459863 0 
L 0 0 
z
" style="fill: #0b0d12"/>
  </g>
  <g id="axes_1">
   <g id="patch_2">
    <path d="M 20.16 244.559772 
L 544.68 244.559772 
L 544.68 48.434902 
L 20.16 48.434902 
z
" style="fill: #0b0d12"/>
   </g>
   <g id="line2d_1">
    <path d="M 38.404174 192.107772 
L 316.627826 192.107772 
" clip-path="url(#p3861dc4e01)" style="fill: none; stroke: #2a3040; stroke-linecap: round"/>
   </g>
   <g id="patch_3">
    <path d="M 95.417217 192.107772 
C 95.417217 187.953603 94.660499 183.833967 93.184189 179.950976 
C 91.707878 176.067984 89.536519 172.486194 86.776639 169.381329 
" clip-path="url(#p3861dc4e01)" style="fill: none; stroke: #9aa4b8; stroke-width: 1.4; stroke-linejoin: miter"/>
   </g>
   <g id="matplotlib.axis_1"/>
   <g id="matplotlib.axis_2"/>
   <g id="line2d_2">
    <path d="M 184.357565 192.107772 
L 184.357565 182.073476 
" clip-path="url(#p3861dc4e01)" style="fill: none; stroke: #9aa4b8; stroke-width: 1.1; stroke-linecap: round"/>
   </g>
   <g id="line2d_3">
    <path d="M 184.357565 182.073476 
L 174.32327 182.073476 
" clip-path="url(#p3861dc4e01)" style="fill: none; stroke: #9aa4b8; stroke-width: 1.1; stroke-linecap: round"/>
   </g>
   <g id="line2d_4">
    <path d="M 61.209391 192.107772 
L 184.357565 192.107772 
" clip-path="url(#p3861dc4e01)" style="fill: none; stroke: #ffc44d; stroke-opacity: 0.9; stroke-width: 8"/>
   </g>
   <g id="text_1">
    <!-- θ -->
    <g style="fill: #9aa4b8" transform="translate(104.539304 178.424641) scale(0.14 -0.14)">
     <defs>
      <path id="Pretendard-Medium-51b" d="M 3213 1931 
L 3213 2550 
C 3213 3906 2638 4519 1756 4519 
C 888 4519 300 3906 300 2550 
L 300 1931 
C 300 569 894 -63 1769 -63 
C 2638 -63 3213 569 3213 1931 
z
M 2550 2663 
L 2550 2506 
L 963 2506 
L 963 2663 
C 963 3500 1281 3950 1756 3950 
C 2231 3950 2550 3513 2550 2663 
z
M 963 1825 
L 963 1938 
L 2550 1938 
L 2550 1825 
C 2550 963 2238 506 1769 506 
C 1288 506 963 981 963 1825 
z
" transform="scale(0.015625)"/>
     </defs>
     <use xlink:href="#Pretendard-Medium-51b"/>
    </g>
   </g>
   <g id="text_2">
    <!-- b 의 a 방향 성분 -->
    <g style="fill: #ffc44d" transform="translate(84.151916 217.193511) scale(0.12 -0.12)">
     <defs>
      <path id="Pretendard-Medium-1c4" d="M 463 0 
L 1113 0 
L 1113 531 
L 1163 531 
C 1288 306 1525 -69 2144 -69 
C 2969 -69 3569 594 3569 1688 
C 3569 2794 2956 3438 2138 3438 
C 1513 3438 1288 3056 1163 2844 
L 1125 2844 
L 1125 4525 
L 463 4525 
L 463 0 
z
M 1113 1700 
C 1113 2406 1425 2869 1994 2869 
C 2588 2869 2888 2369 2888 1700 
C 2888 1019 2581 500 1994 500 
C 1431 500 1113 988 1113 1700 
z
" transform="scale(0.015625)"/>
      <path id="Pretendard-Medium-2" transform="scale(0.015625)"/>
      <path id="Pretendard-Medium-2158" d="M 2031 4669 
C 1150 4675 500 4125 506 3338 
C 500 2550 1150 2000 2031 2000 
C 2919 2000 3550 2550 3556 3338 
C 3550 4125 2919 4675 2031 4669 
z
M 2031 4156 
C 2575 4156 2975 3831 2975 3338 
C 2975 2844 2575 2519 2031 2519 
C 1488 2519 1088 2844 1094 3338 
C 1088 3831 1488 4156 2031 4156 
z
M 4838 5069 
L 4244 5069 
L 4244 -544 
L 4838 -544 
L 4838 5069 
z
M 238 1156 
L 313 663 
C 1313 663 2669 669 3938 913 
L 3894 1344 
C 2669 1169 1256 1156 238 1156 
z
" transform="scale(0.015625)"/>
      <path id="Pretendard-Medium-1a0" d="M 250 956 
C 250 294 750 -75 1394 -75 
C 1956 -75 2269 206 2400 463 
L 2425 463 
L 2425 0 
L 3075 0 
L 3075 2256 
C 3075 3238 2281 3438 1744 3438 
C 944 3438 419 3031 356 2469 
L 1019 2469 
C 1088 2719 1325 2900 1719 2900 
C 2175 2900 2406 2675 2406 2294 
L 2413 2025 
C 2253 2019 1744 1991 1519 1975 
C 906 1931 250 1731 250 956 
z
M 900 950 
C 900 1288 1175 1450 1613 1481 
L 2413 1538 
L 2413 1225 
C 2413 819 2088 456 1544 456 
C 1169 456 900 625 900 950 
z
" transform="scale(0.015625)"/>
      <path id="Pretendard-Medium-1629" d="M 2800 1581 
C 1631 1581 919 1194 919 531 
C 919 -138 1631 -525 2800 -531 
C 3956 -525 4656 -138 4656 531 
C 4656 1194 3956 1581 2800 1581 
z
M 2800 1113 
C 3606 1113 4075 906 4075 531 
C 4075 156 3606 -56 2800 -56 
C 1988 -56 1506 156 1513 531 
C 1506 906 1988 1113 2800 1113 
z
M 4606 5069 
L 4013 5069 
L 4013 1725 
L 4606 1725 
L 4606 3194 
L 5419 3194 
L 5419 3700 
L 4606 3700 
L 4606 5069 
z
M 1006 4719 
L 425 4719 
L 425 2119 
L 3063 2119 
L 3063 4719 
L 2475 4719 
L 2475 3913 
L 1006 3913 
L 1006 4719 
z
M 1006 2594 
L 1006 3444 
L 2475 3444 
L 2475 2594 
L 1006 2594 
z
" transform="scale(0.015625)"/>
      <path id="Pretendard-Medium-2fa5" d="M 5400 4144 
L 4606 4144 
L 4606 5069 
L 4013 5069 
L 4013 1475 
L 4606 1475 
L 4606 2463 
L 5400 2463 
L 5400 2950 
L 4606 2950 
L 4606 3656 
L 5400 3656 
L 5400 4144 
z
M 2819 1431 
C 1663 1431 956 1069 963 450 
C 956 -156 1663 -525 2819 -519 
C 3963 -525 4669 -156 4669 450 
C 4669 1069 3963 1431 2819 1431 
z
M 2819 975 
C 3613 975 4081 794 4081 450 
C 4081 125 3613 -69 2819 -69 
C 2013 -69 1544 125 1550 450 
C 1544 794 2013 975 2819 975 
z
M 3550 4469 
L 2181 4469 
L 2181 5113 
L 1588 5113 
L 1588 4469 
L 213 4469 
L 213 4000 
L 3550 4000 
L 3550 4469 
z
M 1881 3744 
C 1063 3744 519 3344 519 2744 
C 519 2144 1063 1750 1881 1756 
C 2688 1750 3238 2144 3238 2744 
C 3238 3344 2688 3744 1881 3744 
z
M 1881 3300 
C 2356 3300 2675 3088 2681 2744 
C 2675 2413 2356 2206 1881 2206 
C 1406 2206 1088 2413 1094 2744 
C 1088 3088 1406 3300 1881 3300 
z
" transform="scale(0.015625)"/>
      <path id="Pretendard-Medium-1b31" d="M 2194 4231 
L 2194 4756 
L 1606 4756 
L 1606 4206 
C 1600 3363 1081 2619 188 2313 
L 506 1838 
C 1181 2081 1669 2578 1913 3219 
C 2156 2659 2609 2228 3225 2006 
L 3550 2469 
C 2700 2744 2194 3444 2194 4231 
z
M 4875 5069 
L 4281 5069 
L 4281 3931 
L 3100 3931 
L 3100 3444 
L 4281 3444 
L 4281 1763 
L 4875 1763 
L 4875 5069 
z
M 3000 1606 
C 1825 1606 1100 1219 1106 538 
C 1100 -138 1825 -525 3000 -519 
C 4175 -525 4894 -138 4894 538 
C 4894 1219 4175 1606 3000 1606 
z
M 3000 1144 
C 3819 1144 4306 925 4306 538 
C 4306 163 3819 -50 3000 -50 
C 2181 -50 1694 163 1694 538 
C 1694 925 2181 1144 3000 1144 
z
" transform="scale(0.015625)"/>
      <path id="Pretendard-Medium-1784" d="M 5325 2138 
L 200 2138 
L 200 1663 
L 2513 1663 
L 2513 631 
L 3100 631 
L 3100 1663 
L 5325 1663 
L 5325 2138 
z
M 4756 69 
L 1425 69 
L 1425 1119 
L 838 1119 
L 838 -413 
L 4756 -413 
L 4756 69 
z
M 1463 4894 
L 875 4894 
L 875 2631 
L 4650 2631 
L 4650 4894 
L 4056 4894 
L 4056 4213 
L 1463 4213 
L 1463 4894 
z
M 1463 3106 
L 1463 3769 
L 4056 3769 
L 4056 3106 
L 1463 3106 
z
" transform="scale(0.015625)"/>
     </defs>
     <use xlink:href="#Pretendard-Medium-1c4"/>
     <use xlink:href="#Pretendard-Medium-2" transform="translate(59.765625 0)"/>
     <use xlink:href="#Pretendard-Medium-2158" transform="translate(84.1875 0)"/>
     <use xlink:href="#Pretendard-Medium-2" transform="translate(170.609375 0)"/>
     <use xlink:href="#Pretendard-Medium-1a0" transform="translate(195.03125 0)"/>
     <use xlink:href="#Pretendard-Medium-2" transform="translate(249.328125 0)"/>
     <use xlink:href="#Pretendard-Medium-1629" transform="translate(273.75 0)"/>
     <use xlink:href="#Pretendard-Medium-2fa5" transform="translate(360.171875 0)"/>
     <use xlink:href="#Pretendard-Medium-2" transform="translate(446.59375 0)"/>
     <use xlink:href="#Pretendard-Medium-1b31" transform="translate(471.015625 0)"/>
     <use xlink:href="#Pretendard-Medium-1784" transform="translate(557.4375 0)"/>
    </g>
   </g>
   <g id="text_3">
    <!-- a · b  =  |a| |b| cos θ -->
    <g style="fill: #35d6e6" transform="translate(330.310957 94.045337) scale(0.17 -0.17)">
     <defs>
      <path id="Consolas-Bold-83" d="M 2425 0 
L 2406 416 
Q 2306 309 2197 220 
Q 2088 131 1956 65 
Q 1825 0 1670 -36 
Q 1516 -72 1331 -72 
Q 1088 -72 903 0 
Q 719 72 594 200 
Q 469 328 405 509 
Q 341 691 341 909 
Q 341 1134 436 1325 
Q 531 1516 726 1653 
Q 922 1791 1214 1869 
Q 1506 1947 1900 1947 
L 2316 1947 
L 2316 2138 
Q 2316 2259 2281 2357 
Q 2247 2456 2170 2525 
Q 2094 2594 1972 2631 
Q 1850 2669 1672 2669 
Q 1391 2669 1117 2605 
Q 844 2541 588 2425 
L 588 3034 
Q 816 3125 1114 3184 
Q 1413 3244 1734 3244 
Q 2088 3244 2341 3176 
Q 2594 3109 2758 2975 
Q 2922 2841 3000 2639 
Q 3078 2438 3078 2169 
L 3078 0 
L 2425 0 
z
M 2316 1403 
L 1850 1403 
Q 1656 1403 1522 1365 
Q 1388 1328 1303 1262 
Q 1219 1197 1180 1111 
Q 1141 1025 1141 928 
Q 1141 734 1266 632 
Q 1391 531 1606 531 
Q 1766 531 1937 647 
Q 2109 763 2316 978 
L 2316 1403 
z
" transform="scale(0.015625)"/>
      <path id="Consolas-Bold-3" transform="scale(0.015625)"/>
      <path id="Consolas-Bold-17d" d="M 1759 2369 
Q 1891 2369 2003 2320 
Q 2116 2272 2198 2189 
Q 2281 2106 2328 1993 
Q 2375 1881 2375 1753 
Q 2375 1628 2328 1518 
Q 2281 1409 2198 1326 
Q 2116 1244 2003 1195 
Q 1891 1147 1759 1147 
Q 1634 1147 1525 1195 
Q 1416 1244 1334 1326 
Q 1253 1409 1206 1518 
Q 1159 1628 1159 1753 
Q 1159 1881 1206 1993 
Q 1253 2106 1334 2189 
Q 1416 2272 1525 2320 
Q 1634 2369 1759 2369 
z
" transform="scale(0.015625)"/>
      <path id="Consolas-Bold-84" d="M 3291 1644 
Q 3291 1206 3167 887 
Q 3044 569 2823 358 
Q 2603 147 2303 45 
Q 2003 -56 1650 -56 
Q 1303 -56 1004 -4 
Q 706 47 434 134 
L 434 4416 
L 1197 4416 
L 1197 3378 
L 1166 2753 
Q 1338 2975 1567 3109 
Q 1797 3244 2119 3244 
Q 2400 3244 2619 3131 
Q 2838 3019 2986 2811 
Q 3134 2603 3212 2308 
Q 3291 2013 3291 1644 
z
M 2491 1613 
Q 2491 1875 2453 2059 
Q 2416 2244 2345 2362 
Q 2275 2481 2173 2536 
Q 2072 2591 1941 2591 
Q 1747 2591 1570 2434 
Q 1394 2278 1197 2009 
L 1197 622 
Q 1288 588 1420 566 
Q 1553 544 1691 544 
Q 1872 544 2020 619 
Q 2169 694 2273 831 
Q 2378 969 2434 1167 
Q 2491 1366 2491 1613 
z
" transform="scale(0.015625)"/>
      <path id="Consolas-Bold-2b0" d="M 416 2019 
L 416 2625 
L 3103 2625 
L 3103 2019 
L 416 2019 
z
M 416 788 
L 416 1394 
L 3103 1394 
L 3103 788 
L 416 788 
z
" transform="scale(0.015625)"/>
      <path id="Consolas-Bold-176" d="M 1409 -1281 
L 1409 5119 
L 2113 5119 
L 2113 -1281 
L 1409 -1281 
z
" transform="scale(0.015625)"/>
      <path id="Consolas-Bold-85" d="M 3003 122 
Q 2778 31 2537 -12 
Q 2297 -56 2034 -56 
Q 1656 -56 1356 47 
Q 1056 150 847 353 
Q 638 556 527 856 
Q 416 1156 416 1550 
Q 416 1931 536 2240 
Q 656 2550 875 2769 
Q 1094 2988 1401 3106 
Q 1709 3225 2088 3225 
Q 2397 3225 2608 3192 
Q 2819 3159 2988 3109 
L 2988 2369 
Q 2794 2466 2567 2519 
Q 2341 2572 2138 2572 
Q 1925 2572 1756 2500 
Q 1588 2428 1472 2300 
Q 1356 2172 1295 1989 
Q 1234 1806 1234 1588 
Q 1234 1359 1300 1178 
Q 1366 997 1486 870 
Q 1606 744 1775 676 
Q 1944 609 2150 609 
Q 2250 609 2361 623 
Q 2472 638 2583 664 
Q 2694 691 2801 725 
Q 2909 759 3003 800 
L 3003 122 
z
" transform="scale(0.015625)"/>
      <path id="Consolas-Bold-91" d="M 3294 1613 
Q 3294 1238 3187 927 
Q 3081 616 2881 394 
Q 2681 172 2390 50 
Q 2100 -72 1728 -72 
Q 1375 -72 1097 31 
Q 819 134 625 339 
Q 431 544 328 851 
Q 225 1159 225 1569 
Q 225 1947 333 2256 
Q 441 2566 642 2784 
Q 844 3003 1134 3123 
Q 1425 3244 1791 3244 
Q 2147 3244 2425 3139 
Q 2703 3034 2897 2828 
Q 3091 2622 3192 2317 
Q 3294 2013 3294 1613 
z
M 2500 1594 
Q 2500 2088 2314 2336 
Q 2128 2584 1766 2584 
Q 1566 2584 1425 2506 
Q 1284 2428 1193 2292 
Q 1103 2156 1061 1975 
Q 1019 1794 1019 1588 
Q 1019 1091 1219 839 
Q 1419 588 1766 588 
Q 1956 588 2097 664 
Q 2238 741 2325 877 
Q 2413 1013 2456 1197 
Q 2500 1381 2500 1594 
z
" transform="scale(0.015625)"/>
      <path id="Consolas-Bold-95" d="M 3053 934 
Q 3053 663 2933 470 
Q 2813 278 2614 158 
Q 2416 38 2164 -17 
Q 1913 -72 1650 -72 
Q 1300 -72 1019 -39 
Q 738 -6 488 56 
L 488 744 
Q 781 622 1073 567 
Q 1366 513 1625 513 
Q 1925 513 2073 608 
Q 2222 703 2222 856 
Q 2222 928 2190 987 
Q 2159 1047 2073 1101 
Q 1988 1156 1831 1214 
Q 1675 1272 1422 1344 
Q 1188 1409 1011 1492 
Q 834 1575 718 1687 
Q 603 1800 545 1948 
Q 488 2097 488 2297 
Q 488 2491 575 2662 
Q 663 2834 836 2964 
Q 1009 3094 1268 3169 
Q 1528 3244 1875 3244 
Q 2175 3244 2406 3212 
Q 2638 3181 2816 3144 
L 2816 2522 
Q 2544 2609 2305 2645 
Q 2066 2681 1831 2681 
Q 1597 2681 1455 2597 
Q 1313 2513 1313 2363 
Q 1313 2291 1341 2234 
Q 1369 2178 1451 2125 
Q 1534 2072 1682 2014 
Q 1831 1956 2075 1888 
Q 2350 1809 2537 1720 
Q 2725 1631 2839 1518 
Q 2953 1406 3003 1262 
Q 3053 1119 3053 934 
z
" transform="scale(0.015625)"/>
      <path id="Consolas-Bold-1b9" d="M 3263 2241 
Q 3263 1716 3163 1287 
Q 3063 859 2867 557 
Q 2672 256 2386 92 
Q 2100 -72 1728 -72 
Q 1375 -72 1101 53 
Q 828 178 640 448 
Q 453 719 354 1145 
Q 256 1572 256 2175 
Q 256 2706 357 3131 
Q 459 3556 656 3854 
Q 853 4153 1139 4314 
Q 1425 4475 1791 4475 
Q 2147 4475 2422 4347 
Q 2697 4219 2883 3948 
Q 3069 3678 3166 3254 
Q 3263 2831 3263 2241 
z
M 2472 2534 
Q 2456 2891 2406 3136 
Q 2356 3381 2268 3532 
Q 2181 3684 2054 3753 
Q 1928 3822 1766 3822 
Q 1434 3822 1261 3492 
Q 1088 3163 1050 2534 
L 2472 2534 
z
M 1050 1941 
Q 1063 1563 1116 1303 
Q 1169 1044 1259 883 
Q 1350 722 1478 651 
Q 1606 581 1766 581 
Q 2097 581 2269 925 
Q 2441 1269 2472 1941 
L 1050 1941 
z
" transform="scale(0.015625)"/>
     </defs>
     <use xlink:href="#Consolas-Bold-83"/>
     <use xlink:href="#Consolas-Bold-3" transform="translate(54.984375 0)"/>
     <use xlink:href="#Consolas-Bold-17d" transform="translate(109.96875 0)"/>
     <use xlink:href="#Consolas-Bold-3" transform="translate(164.953125 0)"/>
     <use xlink:href="#Consolas-Bold-84" transform="translate(219.9375 0)"/>
     <use xlink:href="#Consolas-Bold-3" transform="translate(274.921875 0)"/>
     <use xlink:href="#Consolas-Bold-3" transform="translate(329.90625 0)"/>
     <use xlink:href="#Consolas-Bold-2b0" transform="translate(384.890625 0)"/>
     <use xlink:href="#Consolas-Bold-3" transform="translate(439.875 0)"/>
     <use xlink:href="#Consolas-Bold-3" transform="translate(494.859375 0)"/>
     <use xlink:href="#Consolas-Bold-176" transform="translate(549.84375 0)"/>
     <use xlink:href="#Consolas-Bold-83" transform="translate(604.828125 0)"/>
     <use xlink:href="#Consolas-Bold-176" transform="translate(659.8125 0)"/>
     <use xlink:href="#Consolas-Bold-3" transform="translate(714.796875 0)"/>
     <use xlink:href="#Consolas-Bold-176" transform="translate(769.78125 0)"/>
     <use xlink:href="#Consolas-Bold-84" transform="translate(824.765625 0)"/>
     <use xlink:href="#Consolas-Bold-176" transform="translate(879.75 0)"/>
     <use xlink:href="#Consolas-Bold-3" transform="translate(934.734375 0)"/>
     <use xlink:href="#Consolas-Bold-85" transform="translate(989.71875 0)"/>
     <use xlink:href="#Consolas-Bold-91" transform="translate(1044.703125 0)"/>
     <use xlink:href="#Consolas-Bold-95" transform="translate(1099.6875 0)"/>
     <use xlink:href="#Consolas-Bold-3" transform="translate(1154.671875 0)"/>
     <use xlink:href="#Consolas-Bold-1b9" transform="translate(1209.65625 0)"/>
    </g>
   </g>
   <g id="text_4">
    <!--         =  |a| × (투영 길이) -->
    <g style="fill: #9aa4b8" transform="translate(330.310957 123.69212) scale(0.14 -0.14)">
     <defs>
      <path id="Consolas-3" transform="scale(0.015625)"/>
      <path id="Consolas-2b0" d="M 3103 2019 
L 416 2019 
L 416 2478 
L 3103 2478 
L 3103 2019 
z
M 3103 931 
L 416 931 
L 416 1391 
L 3103 1391 
L 3103 931 
z
" transform="scale(0.015625)"/>
      <path id="Consolas-176" d="M 2016 -1281 
L 1503 -1281 
L 1503 5119 
L 2016 5119 
L 2016 -1281 
z
" transform="scale(0.015625)"/>
      <path id="Consolas-83" d="M 2516 0 
L 2503 422 
Q 2247 169 1983 56 
Q 1719 -56 1428 -56 
Q 1159 -56 968 12 
Q 778 81 654 201 
Q 531 322 473 484 
Q 416 647 416 838 
Q 416 1309 767 1576 
Q 1119 1844 1806 1844 
L 2456 1844 
L 2456 2119 
Q 2456 2397 2278 2564 
Q 2100 2731 1734 2731 
Q 1469 2731 1211 2672 
Q 953 2613 678 2503 
L 678 2994 
Q 781 3031 907 3067 
Q 1034 3103 1175 3131 
Q 1316 3159 1469 3176 
Q 1622 3194 1778 3194 
Q 2063 3194 2291 3131 
Q 2519 3069 2676 2941 
Q 2834 2813 2918 2619 
Q 3003 2425 3003 2163 
L 3003 0 
L 2516 0 
z
M 2456 1428 
L 1766 1428 
Q 1563 1428 1416 1387 
Q 1269 1347 1175 1272 
Q 1081 1197 1036 1092 
Q 991 988 991 856 
Q 991 766 1019 683 
Q 1047 600 1109 536 
Q 1172 472 1272 434 
Q 1372 397 1516 397 
Q 1703 397 1945 511 
Q 2188 625 2456 872 
L 2456 1428 
z
" transform="scale(0.015625)"/>
      <path id="Consolas-2ae" d="M 3047 2656 
L 2106 1716 
L 3059 769 
L 2694 403 
L 1747 1356 
L 806 416 
L 475 750 
L 1416 1691 
L 459 2638 
L 825 3003 
L 1772 2047 
L 2713 2988 
L 3047 2656 
z
" transform="scale(0.015625)"/>
      <path id="Consolas-17f" d="M 2378 -1313 
Q 938 22 938 1638 
Q 938 2016 1014 2392 
Q 1091 2769 1261 3147 
Q 1431 3525 1711 3903 
Q 1991 4281 2391 4653 
L 2706 4331 
Q 1494 3134 1494 1678 
Q 1494 953 1800 284 
Q 2106 -384 2706 -978 
L 2378 -1313 
z
" transform="scale(0.015625)"/>
      <path id="Pretendard-Medium-2c2c" d="M 5325 1706 
L 200 1706 
L 200 1219 
L 2463 1219 
L 2463 -531 
L 3050 -531 
L 3050 1219 
L 5325 1219 
L 5325 1706 
z
M 4756 2700 
L 1456 2700 
L 1456 3306 
L 4569 3306 
L 4569 3769 
L 1456 3769 
L 1456 4344 
L 4694 4344 
L 4694 4819 
L 875 4819 
L 875 2225 
L 4756 2225 
L 4756 2700 
z
" transform="scale(0.015625)"/>
      <path id="Pretendard-Medium-2001" d="M 1756 4744 
C 913 4750 288 4188 288 3400 
C 288 2619 913 2056 1756 2063 
C 2219 2059 2616 2231 2875 2519 
L 4281 2519 
L 4281 1763 
L 4875 1763 
L 4875 5069 
L 4281 5069 
L 4281 4281 
L 2881 4281 
C 2619 4572 2222 4747 1756 4744 
z
M 1756 4231 
C 2269 4238 2644 3900 2644 3400 
C 2644 2913 2269 2563 1756 2569 
C 1231 2563 856 2913 856 3400 
C 856 3900 1231 4238 1756 4231 
z
M 3000 1638 
C 1831 1638 1100 1244 1106 556 
C 1100 -125 1831 -525 3000 -519 
C 4163 -525 4894 -125 4894 556 
C 4894 1244 4163 1638 3000 1638 
z
M 3000 1181 
C 3825 1181 4313 956 4313 556 
C 4313 169 3825 -50 3000 -50 
C 2181 -50 1681 169 1688 556 
C 1681 956 2181 1181 3000 1181 
z
M 3150 3806 
L 4281 3806 
L 4281 3006 
L 3156 3006 
C 3191 3128 3213 3263 3213 3400 
C 3213 3544 3191 3681 3150 3806 
z
" transform="scale(0.015625)"/>
      <path id="Pretendard-Medium-838" d="M 4850 5069 
L 4256 5069 
L 4256 2219 
L 4850 2219 
L 4850 5069 
z
M 3169 4819 
L 588 4819 
L 588 4331 
L 2519 4331 
C 2428 3509 1697 2881 294 2588 
L 513 2106 
C 2206 2481 3163 3350 3169 4819 
z
M 4850 1969 
L 1169 1969 
L 1169 1500 
L 4256 1500 
L 4256 1006 
L 1188 1006 
L 1188 -475 
L 5038 -475 
L 5038 -6 
L 1775 -6 
L 1775 563 
L 4850 563 
L 4850 1969 
z
" transform="scale(0.015625)"/>
      <path id="Pretendard-Medium-2174" d="M 4844 5069 
L 4250 5069 
L 4250 -544 
L 4844 -544 
L 4844 5069 
z
M 1850 4650 
C 1006 4650 400 3888 400 2688 
C 400 1481 1006 719 1850 719 
C 2681 719 3294 1481 3294 2688 
C 3294 3888 2681 4650 1850 4650 
z
M 1850 4119 
C 2363 4119 2719 3569 2719 2688 
C 2719 1800 2363 1250 1850 1250 
C 1331 1250 975 1800 975 2688 
C 975 3569 1331 4119 1850 4119 
z
" transform="scale(0.015625)"/>
      <path id="Consolas-180" d="M 1141 4653 
Q 2581 3319 2581 1684 
Q 2581 1347 2512 984 
Q 2444 622 2278 242 
Q 2113 -138 1833 -528 
Q 1553 -919 1128 -1313 
L 813 -991 
Q 1422 -388 1722 268 
Q 2022 925 2022 1644 
Q 2022 3131 813 4319 
L 1141 4653 
z
" transform="scale(0.015625)"/>
     </defs>
     <use xlink:href="#Consolas-3"/>
     <use xlink:href="#Consolas-3" transform="translate(54.984375 0)"/>
     <use xlink:href="#Consolas-3" transform="translate(109.96875 0)"/>
     <use xlink:href="#Consolas-3" transform="translate(164.953125 0)"/>
     <use xlink:href="#Consolas-3" transform="translate(219.9375 0)"/>
     <use xlink:href="#Consolas-3" transform="translate(274.921875 0)"/>
     <use xlink:href="#Consolas-3" transform="translate(329.90625 0)"/>
     <use xlink:href="#Consolas-3" transform="translate(384.890625 0)"/>
     <use xlink:href="#Consolas-2b0" transform="translate(439.875 0)"/>
     <use xlink:href="#Consolas-3" transform="translate(494.859375 0)"/>
     <use xlink:href="#Consolas-3" transform="translate(549.84375 0)"/>
     <use xlink:href="#Consolas-176" transform="translate(604.828125 0)"/>
     <use xlink:href="#Consolas-83" transform="translate(659.8125 0)"/>
     <use xlink:href="#Consolas-176" transform="translate(714.796875 0)"/>
     <use xlink:href="#Consolas-3" transform="translate(769.78125 0)"/>
     <use xlink:href="#Consolas-2ae" transform="translate(824.765625 0)"/>
     <use xlink:href="#Consolas-3" transform="translate(879.75 0)"/>
     <use xlink:href="#Consolas-17f" transform="translate(934.734375 0)"/>
     <use xlink:href="#Pretendard-Medium-2c2c" transform="translate(989.71875 0)"/>
     <use xlink:href="#Pretendard-Medium-2001" transform="translate(1076.140625 0)"/>
     <use xlink:href="#Consolas-3" transform="translate(1162.5625 0)"/>
     <use xlink:href="#Pretendard-Medium-838" transform="translate(1217.546875 0)"/>
     <use xlink:href="#Pretendard-Medium-2174" transform="translate(1303.96875 0)"/>
     <use xlink:href="#Consolas-180" transform="translate(1390.390625 0)"/>
    </g>
   </g>
   <g id="text_5">
    <!-- a·b &gt; 0   앞쪽 -->
    <g style="fill: #e8ecf4" transform="translate(330.310957 183.322814) scale(0.125 -0.125)">
     <defs>
      <path id="Consolas-17d" d="M 1759 2291 
Q 1866 2291 1961 2248 
Q 2056 2206 2126 2136 
Q 2197 2066 2237 1969 
Q 2278 1872 2278 1766 
Q 2278 1659 2237 1565 
Q 2197 1472 2126 1401 
Q 2056 1331 1961 1289 
Q 1866 1247 1759 1247 
Q 1650 1247 1556 1289 
Q 1463 1331 1392 1401 
Q 1322 1472 1281 1565 
Q 1241 1659 1241 1766 
Q 1241 1872 1281 1969 
Q 1322 2066 1392 2136 
Q 1463 2206 1556 2248 
Q 1650 2291 1759 2291 
z
" transform="scale(0.015625)"/>
      <path id="Consolas-84" d="M 3181 1625 
Q 3181 1234 3073 926 
Q 2966 619 2767 405 
Q 2569 191 2284 76 
Q 2000 -38 1644 -38 
Q 1366 -38 1075 15 
Q 784 69 500 184 
L 500 4416 
L 1044 4416 
L 1044 3200 
L 1019 2619 
Q 1253 2934 1520 3064 
Q 1788 3194 2094 3194 
Q 2363 3194 2566 3081 
Q 2769 2969 2906 2764 
Q 3044 2559 3112 2270 
Q 3181 1981 3181 1625 
z
M 2625 1600 
Q 2625 1847 2589 2053 
Q 2553 2259 2475 2406 
Q 2397 2553 2275 2636 
Q 2153 2719 1984 2719 
Q 1881 2719 1775 2686 
Q 1669 2653 1555 2576 
Q 1441 2500 1314 2373 
Q 1188 2247 1044 2059 
L 1044 538 
Q 1203 475 1368 439 
Q 1534 403 1684 403 
Q 1872 403 2042 462 
Q 2213 522 2342 661 
Q 2472 800 2548 1029 
Q 2625 1259 2625 1600 
z
" transform="scale(0.015625)"/>
      <path id="Consolas-2b4" d="M 653 3109 
L 991 3456 
L 3091 1703 
L 991 -50 
L 653 294 
L 2356 1697 
L 653 3109 
z
" transform="scale(0.015625)"/>
      <path id="Consolas-265" d="M 3244 2041 
Q 3244 1572 3150 1186 
Q 3056 800 2865 523 
Q 2675 247 2392 95 
Q 2109 -56 1728 -56 
Q 1400 -56 1131 67 
Q 863 191 672 447 
Q 481 703 378 1100 
Q 275 1497 275 2041 
Q 275 2509 370 2896 
Q 466 3284 655 3561 
Q 844 3838 1128 3989 
Q 1413 4141 1791 4141 
Q 2119 4141 2387 4017 
Q 2656 3894 2847 3636 
Q 3038 3378 3141 2981 
Q 3244 2584 3244 2041 
z
M 2694 2022 
Q 2694 2128 2686 2233 
Q 2678 2338 2669 2438 
L 941 1153 
Q 988 991 1059 853 
Q 1131 716 1232 617 
Q 1334 519 1464 464 
Q 1594 409 1759 409 
Q 1972 409 2145 512 
Q 2319 616 2441 819 
Q 2563 1022 2628 1323 
Q 2694 1625 2694 2022 
z
M 825 2059 
Q 825 1963 826 1866 
Q 828 1769 838 1678 
L 2566 2956 
Q 2519 3116 2447 3247 
Q 2375 3378 2275 3473 
Q 2175 3569 2047 3622 
Q 1919 3675 1759 3675 
Q 1547 3675 1373 3572 
Q 1200 3469 1078 3264 
Q 956 3059 890 2757 
Q 825 2456 825 2059 
z
" transform="scale(0.015625)"/>
      <path id="Pretendard-Medium-1f5e" d="M 4606 5063 
L 4013 5063 
L 4013 1913 
L 4606 1913 
L 4606 3256 
L 5419 3256 
L 5419 3738 
L 4606 3738 
L 4606 5063 
z
M 4738 1631 
L 981 1631 
L 981 1156 
L 1744 1156 
L 1744 38 
L 938 38 
L 938 -444 
L 4813 -444 
L 4813 38 
L 3994 38 
L 3994 1156 
L 4738 1156 
L 4738 1631 
z
M 1781 4756 
C 925 4756 288 4213 294 3431 
C 288 2656 925 2113 1781 2113 
C 2638 2113 3269 2656 3275 3431 
C 3269 4213 2638 4756 1781 4756 
z
M 1781 4256 
C 2306 4263 2694 3931 2694 3431 
C 2694 2938 2306 2613 1781 2606 
C 1256 2613 869 2938 875 3431 
C 869 3931 1256 4263 1781 4256 
z
M 2319 38 
L 2319 1156 
L 3413 1156 
L 3413 38 
L 2319 38 
z
" transform="scale(0.015625)"/>
      <path id="Pretendard-Medium-24bd" d="M 1963 4325 
L 1963 4381 
L 2644 4381 
L 2644 4869 
L 538 4869 
L 538 4381 
L 1375 4381 
L 1375 4300 
C 1375 3938 1006 3450 350 3263 
L 606 2831 
C 1153 2991 1513 3338 1694 3731 
C 1878 3378 2228 3056 2756 2900 
C 3281 3044 3631 3359 3819 3713 
C 3994 3319 4359 2984 4906 2831 
L 5169 3263 
C 4494 3438 4138 3894 4138 4300 
L 4138 4381 
L 4969 4381 
L 4969 4869 
L 2869 4869 
L 2869 4381 
L 3538 4381 
L 3538 4325 
C 3538 4006 3259 3619 2763 3406 
C 2253 3625 1963 4028 1963 4325 
z
M 5325 2325 
L 3050 2325 
L 3050 2863 
L 2463 2863 
L 2463 2325 
L 206 2325 
L 206 1844 
L 5325 1844 
L 5325 2325 
z
M 4681 1300 
L 763 1300 
L 763 825 
L 4081 825 
L 4081 -531 
L 4681 -531 
L 4681 1300 
z
" transform="scale(0.015625)"/>
     </defs>
     <use xlink:href="#Consolas-83"/>
     <use xlink:href="#Consolas-17d" transform="translate(54.984375 0)"/>
     <use xlink:href="#Consolas-84" transform="translate(109.96875 0)"/>
     <use xlink:href="#Consolas-3" transform="translate(164.953125 0)"/>
     <use xlink:href="#Consolas-2b4" transform="translate(219.9375 0)"/>
     <use xlink:href="#Consolas-3" transform="translate(274.921875 0)"/>
     <use xlink:href="#Consolas-265" transform="translate(329.90625 0)"/>
     <use xlink:href="#Consolas-3" transform="translate(384.890625 0)"/>
     <use xlink:href="#Consolas-3" transform="translate(439.875 0)"/>
     <use xlink:href="#Consolas-3" transform="translate(494.859375 0)"/>
     <use xlink:href="#Pretendard-Medium-1f5e" transform="translate(549.84375 0)"/>
     <use xlink:href="#Pretendard-Medium-24bd" transform="translate(636.265625 0)"/>
    </g>
    <!-- a·b = 0   정확히 직각 -->
    <g style="fill: #e8ecf4" transform="translate(330.310957 207.121642) scale(0.125 -0.125)">
     <defs>
      <path id="Pretendard-Medium-2215" d="M 4875 5069 
L 4281 5069 
L 4281 3644 
L 3238 3644 
L 3238 3156 
L 4281 3156 
L 4281 1738 
L 4875 1738 
L 4875 5069 
z
M 3000 1581 
C 1825 1581 1100 1194 1106 525 
C 1100 -144 1825 -525 3000 -531 
C 4175 -525 4894 -144 4894 525 
C 4894 1194 4175 1581 3000 1581 
z
M 3000 1119 
C 3819 1119 4306 906 4306 525 
C 4306 150 3819 -69 3000 -63 
C 2181 -69 1694 150 1694 525 
C 1694 906 2181 1119 3000 1119 
z
M 2213 4081 
L 2213 4200 
L 3413 4200 
L 3413 4681 
L 394 4681 
L 394 4200 
L 1606 4200 
L 1606 4075 
C 1606 3300 1075 2544 206 2244 
L 519 1769 
C 1188 2013 1678 2516 1925 3144 
C 2166 2591 2628 2144 3256 1925 
L 3563 2394 
C 2719 2681 2213 3369 2213 4081 
z
" transform="scale(0.015625)"/>
      <path id="Pretendard-Medium-3055" d="M 4613 5063 
L 4019 5063 
L 4019 1294 
L 4613 1294 
L 4613 2913 
L 5413 2913 
L 5413 3400 
L 4613 3400 
L 4613 5063 
z
M 169 1919 
L 231 1444 
C 1219 1444 2544 1450 3750 1663 
L 3700 2088 
C 3231 2022 2725 1981 2225 1956 
L 2225 2313 
C 2856 2381 3256 2681 3256 3131 
C 3256 3644 2725 3963 1925 3956 
C 1119 3963 588 3644 594 3131 
C 588 2678 994 2378 1631 2313 
L 1631 1938 
C 1106 1919 603 1919 169 1919 
z
M 4613 1031 
L 869 1031 
L 869 569 
L 4019 569 
L 4019 -531 
L 4613 -531 
L 4613 1031 
z
M 3544 4588 
L 2225 4588 
L 2225 5113 
L 1631 5113 
L 1631 4588 
L 313 4588 
L 313 4144 
L 3544 4144 
L 3544 4588 
z
M 1925 3550 
C 2400 3556 2688 3400 2688 3131 
C 2688 2869 2400 2700 1925 2700 
C 1444 2700 1156 2869 1156 3131 
C 1156 3400 1444 3556 1925 3550 
z
" transform="scale(0.015625)"/>
      <path id="Pretendard-Medium-3188" d="M 4844 5069 
L 4250 5069 
L 4250 -531 
L 4844 -531 
L 4844 5069 
z
M 3706 4181 
L 2313 4181 
L 2313 5013 
L 1713 5013 
L 1713 4181 
L 331 4181 
L 331 3700 
L 3706 3700 
L 3706 4181 
z
M 2025 3294 
C 1213 3294 619 2756 619 1994 
C 619 1225 1213 694 2025 688 
C 2844 694 3438 1225 3438 1994 
C 3438 2756 2844 3294 2025 3294 
z
M 2025 2806 
C 2513 2806 2869 2475 2869 1994 
C 2869 1506 2513 1181 2025 1188 
C 1538 1181 1181 1506 1181 1994 
C 1181 2475 1538 2806 2025 2806 
z
" transform="scale(0.015625)"/>
      <path id="Pretendard-Medium-23c1" d="M 2281 4063 
L 2281 4219 
L 3513 4219 
L 3513 4700 
L 425 4700 
L 425 4219 
L 1681 4219 
L 1681 4063 
C 1675 3300 1138 2569 269 2269 
L 575 1813 
C 1244 2047 1741 2528 1994 3138 
C 2244 2575 2731 2131 3375 1919 
L 3681 2381 
C 2819 2656 2281 3344 2281 4063 
z
M 4850 5069 
L 4256 5069 
L 4256 1688 
L 4850 1688 
L 4850 5069 
z
M 4850 1406 
L 1056 1406 
L 1056 925 
L 4256 925 
L 4256 -531 
L 4850 -531 
L 4850 1406 
z
" transform="scale(0.015625)"/>
      <path id="Pretendard-Medium-601" d="M 4606 5069 
L 4013 5069 
L 4013 1794 
L 4606 1794 
L 4606 3188 
L 5419 3188 
L 5419 3688 
L 4606 3688 
L 4606 5069 
z
M 3056 4725 
L 444 4725 
L 444 4244 
L 2419 4244 
C 2316 3359 1519 2650 175 2300 
L 419 1844 
C 2081 2275 3056 3281 3056 4725 
z
M 4606 1550 
L 906 1550 
L 906 1069 
L 4013 1069 
L 4013 -531 
L 4606 -531 
L 4606 1550 
z
" transform="scale(0.015625)"/>
     </defs>
     <use xlink:href="#Consolas-83"/>
     <use xlink:href="#Consolas-17d" transform="translate(54.984375 0)"/>
     <use xlink:href="#Consolas-84" transform="translate(109.96875 0)"/>
     <use xlink:href="#Consolas-3" transform="translate(164.953125 0)"/>
     <use xlink:href="#Consolas-2b0" transform="translate(219.9375 0)"/>
     <use xlink:href="#Consolas-3" transform="translate(274.921875 0)"/>
     <use xlink:href="#Consolas-265" transform="translate(329.90625 0)"/>
     <use xlink:href="#Consolas-3" transform="translate(384.890625 0)"/>
     <use xlink:href="#Consolas-3" transform="translate(439.875 0)"/>
     <use xlink:href="#Consolas-3" transform="translate(494.859375 0)"/>
     <use xlink:href="#Pretendard-Medium-2215" transform="translate(549.84375 0)"/>
     <use xlink:href="#Pretendard-Medium-3055" transform="translate(636.265625 0)"/>
     <use xlink:href="#Pretendard-Medium-3188" transform="translate(722.6875 0)"/>
     <use xlink:href="#Consolas-3" transform="translate(809.109375 0)"/>
     <use xlink:href="#Pretendard-Medium-23c1" transform="translate(864.09375 0)"/>
     <use xlink:href="#Pretendard-Medium-601" transform="translate(950.515625 0)"/>
    </g>
    <!-- a·b &lt; 0   뒤쪽 -->
    <g style="fill: #e8ecf4" transform="translate(330.310957 230.822814) scale(0.125 -0.125)">
     <defs>
      <path id="Consolas-2b3" d="M 2869 294 
L 2528 -50 
L 428 1703 
L 2528 3456 
L 2869 3109 
L 1166 1709 
L 2869 294 
z
" transform="scale(0.015625)"/>
      <path id="Pretendard-Medium-ea4" d="M 4863 5063 
L 4275 5063 
L 4275 -531 
L 4863 -531 
L 4863 5063 
z
M 188 2038 
L 256 1544 
C 722 1544 1234 1547 1769 1569 
L 1769 -356 
L 2363 -356 
L 2363 1594 
C 2881 1622 3413 1669 3931 1744 
L 3900 2181 
C 2675 2050 1288 2044 188 2038 
z
M 3500 3194 
L 1300 3194 
L 1300 4281 
L 3425 4281 
L 3425 4756 
L 706 4756 
L 706 2706 
L 3500 2706 
L 3500 3194 
z
" transform="scale(0.015625)"/>
     </defs>
     <use xlink:href="#Consolas-83"/>
     <use xlink:href="#Consolas-17d" transform="translate(54.984375 0)"/>
     <use xlink:href="#Consolas-84" transform="translate(109.96875 0)"/>
     <use xlink:href="#Consolas-3" transform="translate(164.953125 0)"/>
     <use xlink:href="#Consolas-2b3" transform="translate(219.9375 0)"/>
     <use xlink:href="#Consolas-3" transform="translate(274.921875 0)"/>
     <use xlink:href="#Consolas-265" transform="translate(329.90625 0)"/>
     <use xlink:href="#Consolas-3" transform="translate(384.890625 0)"/>
     <use xlink:href="#Consolas-3" transform="translate(439.875 0)"/>
     <use xlink:href="#Consolas-3" transform="translate(494.859375 0)"/>
     <use xlink:href="#Pretendard-Medium-ea4" transform="translate(549.84375 0)"/>
     <use xlink:href="#Pretendard-Medium-24bd" transform="translate(636.265625 0)"/>
    </g>
   </g>
   <g id="text_6">
    <!-- 내적 — 두 방향이 같은 쪽을 보는 정도 -->
    <g style="fill: #e8ecf4" transform="translate(20.16 34.434902) scale(0.15 -0.15)">
     <defs>
      <path id="Pretendard-Medium-ab4" d="M 5000 5069 
L 4431 5069 
L 4431 2825 
L 3713 2825 
L 3713 4956 
L 3156 4956 
L 3156 -244 
L 3713 -244 
L 3713 2338 
L 4431 2338 
L 4431 -531 
L 5000 -531 
L 5000 5069 
z
M 1063 4406 
L 469 4406 
L 469 894 
L 831 894 
C 1431 894 2075 931 2844 1069 
L 2781 1588 
C 2147 1463 1581 1422 1063 1419 
L 1063 4406 
z
" transform="scale(0.015625)"/>
      <path id="Pretendard-Medium-2201" d="M 2213 4075 
L 2213 4225 
L 3413 4225 
L 3413 4706 
L 394 4706 
L 394 4225 
L 1606 4225 
L 1606 4069 
C 1606 3313 1075 2563 213 2269 
L 519 1800 
C 1184 2034 1675 2528 1919 3144 
C 2163 2591 2628 2144 3256 1925 
L 3563 2388 
C 2719 2675 2213 3369 2213 4075 
z
M 4875 1438 
L 1081 1438 
L 1081 956 
L 4281 956 
L 4281 -531 
L 4875 -531 
L 4875 1438 
z
M 4875 5069 
L 4281 5069 
L 4281 3644 
L 3244 3644 
L 3244 3156 
L 4281 3156 
L 4281 1719 
L 4875 1719 
L 4875 5069 
z
" transform="scale(0.015625)"/>
      <path id="Pretendard-Medium-33c6" d="M 6181 2550 
L -38 2550 
L -38 1975 
L 6181 1975 
L 6181 2550 
z
" transform="scale(0.015625)"/>
      <path id="Pretendard-Medium-e50" d="M 4694 3006 
L 1494 3006 
L 1494 4269 
L 4625 4269 
L 4625 4750 
L 894 4750 
L 894 2538 
L 4694 2538 
L 4694 3006 
z
M 5325 1856 
L 200 1856 
L 200 1375 
L 2456 1375 
L 2456 -519 
L 3038 -519 
L 3038 1375 
L 5325 1375 
L 5325 1856 
z
" transform="scale(0.015625)"/>
      <path id="Pretendard-Medium-619" d="M 4606 5069 
L 4013 5069 
L 4013 2094 
L 4606 2094 
L 4606 3325 
L 5419 3325 
L 5419 3806 
L 4606 3806 
L 4606 5069 
z
M 3094 4681 
L 463 4681 
L 463 4206 
L 2438 4206 
C 2356 3413 1625 2753 213 2469 
L 463 1988 
C 2125 2344 3094 3250 3094 4681 
z
M 4631 1856 
L 1013 1856 
L 1013 -463 
L 4756 -463 
L 4756 -13 
L 1606 -13 
L 1606 494 
L 4569 494 
L 4569 925 
L 1606 925 
L 1606 1406 
L 4631 1406 
L 4631 1856 
z
" transform="scale(0.015625)"/>
      <path id="Pretendard-Medium-2140" d="M 5313 2144 
L 206 2144 
L 206 1669 
L 5313 1669 
L 5313 2144 
z
M 4738 69 
L 1450 69 
L 1450 1213 
L 850 1213 
L 850 -413 
L 4738 -413 
L 4738 69 
z
M 2756 4881 
C 1538 4888 756 4463 756 3763 
C 756 3056 1538 2631 2756 2625 
C 3969 2631 4756 3056 4756 3763 
C 4756 4463 3969 4888 2756 4881 
z
M 2756 4406 
C 3613 4406 4144 4163 4144 3763 
C 4144 3350 3613 3113 2756 3113 
C 1900 3113 1363 3350 1369 3763 
C 1363 4163 1900 4406 2756 4406 
z
" transform="scale(0.015625)"/>
      <path id="Pretendard-Medium-2144" d="M 2756 4975 
C 1494 4975 756 4638 756 4013 
C 756 3388 1494 3044 2756 3044 
C 4019 3044 4756 3388 4756 4013 
C 4756 4638 4019 4975 2756 4975 
z
M 2756 4538 
C 3650 4538 4144 4344 4144 4013 
C 4144 3669 3650 3488 2756 3488 
C 1863 3488 1369 3669 1375 4013 
C 1369 4344 1863 4538 2756 4538 
z
M 5313 2700 
L 206 2700 
L 206 2225 
L 5313 2225 
L 5313 2700 
z
M 4669 1794 
L 819 1794 
L 819 1350 
L 4081 1350 
L 4081 913 
L 825 913 
L 825 -475 
L 4825 -475 
L 4825 -19 
L 1406 -19 
L 1406 481 
L 4669 481 
L 4669 1794 
z
" transform="scale(0.015625)"/>
      <path id="Pretendard-Medium-16f4" d="M 5331 656 
L 3050 656 
L 3050 1806 
L 4725 1806 
L 4725 4688 
L 4138 4688 
L 4138 3725 
L 1388 3725 
L 1388 4688 
L 794 4688 
L 794 1806 
L 2463 1806 
L 2463 656 
L 206 656 
L 206 163 
L 5331 163 
L 5331 656 
z
M 1388 2288 
L 1388 3244 
L 4138 3244 
L 4138 2288 
L 1388 2288 
z
" transform="scale(0.015625)"/>
      <path id="Pretendard-Medium-c94" d="M 4738 3431 
L 1469 3431 
L 1469 4869 
L 881 4869 
L 881 2956 
L 4738 2956 
L 4738 3431 
z
M 5325 2250 
L 200 2250 
L 200 1775 
L 5325 1775 
L 5325 2250 
z
M 4775 88 
L 1431 88 
L 1431 1244 
L 838 1244 
L 838 -400 
L 4775 -400 
L 4775 88 
z
" transform="scale(0.015625)"/>
      <path id="Pretendard-Medium-dc4" d="M 4744 2488 
L 1438 2488 
L 1438 4156 
L 4694 4156 
L 4694 4638 
L 844 4638 
L 844 2013 
L 2463 2013 
L 2463 644 
L 206 644 
L 206 156 
L 5331 156 
L 5331 644 
L 3050 644 
L 3050 2013 
L 4744 2013 
L 4744 2488 
z
" transform="scale(0.015625)"/>
     </defs>
     <use xlink:href="#Pretendard-Medium-ab4"/>
     <use xlink:href="#Pretendard-Medium-2201" transform="translate(86.421875 0)"/>
     <use xlink:href="#Pretendard-Medium-2" transform="translate(172.84375 0)"/>
     <use xlink:href="#Pretendard-Medium-33c6" transform="translate(197.265625 0)"/>
     <use xlink:href="#Pretendard-Medium-2" transform="translate(293.265625 0)"/>
     <use xlink:href="#Pretendard-Medium-e50" transform="translate(317.6875 0)"/>
     <use xlink:href="#Pretendard-Medium-2" transform="translate(404.109375 0)"/>
     <use xlink:href="#Pretendard-Medium-1629" transform="translate(428.53125 0)"/>
     <use xlink:href="#Pretendard-Medium-2fa5" transform="translate(514.953125 0)"/>
     <use xlink:href="#Pretendard-Medium-2174" transform="translate(601.375 0)"/>
     <use xlink:href="#Pretendard-Medium-2" transform="translate(687.796875 0)"/>
     <use xlink:href="#Pretendard-Medium-619" transform="translate(712.21875 0)"/>
     <use xlink:href="#Pretendard-Medium-2140" transform="translate(798.640625 0)"/>
     <use xlink:href="#Pretendard-Medium-2" transform="translate(885.0625 0)"/>
     <use xlink:href="#Pretendard-Medium-24bd" transform="translate(909.484375 0)"/>
     <use xlink:href="#Pretendard-Medium-2144" transform="translate(995.90625 0)"/>
     <use xlink:href="#Pretendard-Medium-2" transform="translate(1082.328125 0)"/>
     <use xlink:href="#Pretendard-Medium-16f4" transform="translate(1106.75 0)"/>
     <use xlink:href="#Pretendard-Medium-c94" transform="translate(1193.171875 0)"/>
     <use xlink:href="#Pretendard-Medium-2" transform="translate(1279.59375 0)"/>
     <use xlink:href="#Pretendard-Medium-2215" transform="translate(1304.015625 0)"/>
     <use xlink:href="#Pretendard-Medium-dc4" transform="translate(1390.4375 0)"/>
    </g>
   </g>
   <g id="line2d_5">
    <path d="M 184.357565 82.642728 
L 184.357565 192.107772 
" clip-path="url(#p3861dc4e01)" style="fill: none; stroke-dasharray: 4.5,4.5; stroke-dashoffset: 0; stroke: #9aa4b8; stroke-width: 1.5"/>
   </g>
   <g id="patch_4">
    <path d="M 61.209391 192.107772 
Q 161.552348 192.107772 259.473886 192.107772 
" style="fill: none; stroke: #35d6e6; stroke-width: 2.6; stroke-linecap: round"/>
    <path d="M 256.613886 190.287772 
L 259.473886 192.107772 
L 256.613886 193.927772 
z
" style="fill: #35d6e6; stroke: #35d6e6; stroke-width: 2.6; stroke-linecap: round"/>
   </g>
   <g id="patch_5">
    <path d="M 61.209391 192.107772 
Q 122.783478 137.37525 182.547775 84.251431 
" style="fill: none; stroke: #ff5fa2; stroke-width: 2.6; stroke-linecap: round"/>
    <path d="M 179.201042 84.791227 
L 182.547775 84.251431 
L 181.619326 87.511797 
z
" style="fill: #ff5fa2; stroke: #ff5fa2; stroke-width: 2.6; stroke-linecap: round"/>
   </g>
   <g id="text_7">
    <!-- a -->
    <g style="fill: #35d6e6" transform="translate(268.280765 211.264155) scale(0.17 -0.17)">
     <use xlink:href="#Pretendard-Medium-1a0"/>
    </g>
   </g>
   <g id="text_8">
    <!-- b -->
    <g style="fill: #ff5fa2" transform="translate(189.830817 76.257268) scale(0.17 -0.17)">
     <use xlink:href="#Pretendard-Medium-1c4"/>
    </g>
   </g>
  </g>
 </g>
 <defs>
  <clipPath id="p3861dc4e01">
   <rect x="20.16" y="48.434902" width="524.52" height="196.12487"/>
  </clipPath>
 </defs>
</svg>
